<?xml version="1.0" encoding="UTF-8"?><svg id="Layer_1" xmlns="http://www.w3.org/2000/svg" viewBox="0 0 506.3 373">
<defs>
	<style>
	.cls-1,.cls-2,.cls-3{stroke-width:0px;}
	</style>
</defs>
<path id="top" class="cls-2" d="M374.92,145c9.91,6.92,15.66,18.52,17.31,30.93h48.69C437.63,68.98,352.13.19,227.7.19v118.58c56-.24,113.18,5.35,147.22,26.22Z"/>
<path id="left" class="cls-3" d="M110.74,242.19c-41.85-7.59-72.53-17.11-74.11-58.69,1.6-41.62,32.34-50.39,74.11-58.07,26.96-2.44,63.3-5.59,101.25-6.44V.19c-283.55-10.08-281.76,376.62,0,367.03v-118.58c-38.04-.86-74.43-4.04-101.25-6.45Z"/>
<path id="bottom" class="cls-1" d="M424.68,260.7c9.7-20.89,15.32-44.28,16.24-69.71h-48.68c-1.64,12.53-7.43,24.29-17.33,31.33-33.68,21.16-91.05,26.79-147.22,26.54v118.36c39.5,0,74.87-7.02,104.93-19.92,55.32,20.52,112.68,31.1,173.67,22.92-63.33-31.78-90.39-67.04-81.62-109.53Z"/>
</svg>