<?xml version="1.0" encoding="utf-8"?>
<!-- Generator: Adobe Illustrator 28.1.0, SVG Export Plug-In . SVG Version: 6.00 Build 0)  -->
<svg version="1.1" id="sprites" xmlns="http://www.w3.org/2000/svg" xmlns:xlink="http://www.w3.org/1999/xlink" x="0px" y="0px"
 width="55px" height="55px" viewBox="0 0 55 55" xml:space="preserve">
<style>
	<![CDATA[
	.icon { display: none; }
	.icon:target { display: inline; }
	]]>
</style>
<g id="cphdh" class="icon">
	<path style="fill:#7361a9;" class="purple" d="M30.2,50.7v-20h20.2v20.1L30.2,50.7L30.2,50.7L30.2,50.7z"/>
	<path style="fill:#d0c271;" class="yellow" d="M30.3,4.9h20.2v19.9H30.3C30.3,24.8,30.3,4.9,30.3,4.9z"/>
	<path style="fill:#75b7d0;" class="blue" d="M4.6,50.7V30.6h19.9v20.1H4.6z"/>
	<path style="fill:#d0764f;" class="orange" d="M4.6,4.9h19.9v19.9H4.6V4.9z"/>
</g>
<g id="people" class="icon">
	<path style="fill:currentColor;" d="M35.4,27.5c-2,0-4-0.9-5.5-2.6c-1.5-1.6-2.4-3.8-2.6-6c-0.2-2.4,0.6-4.7,2.1-6.3s3.7-2.5,6-2.5c2.4,0,4.5,0.9,6,2.5
		c1.5,1.6,2.3,3.9,2.1,6.3c-0.2,2.3-1.1,4.4-2.6,6C39.4,26.6,37.5,27.5,35.4,27.5z M48.5,44.9H22.4c-0.9,0-1.7-0.4-2.2-1.1
		c-0.6-0.7-0.7-1.7-0.5-2.6c0.8-3.3,2.9-6.1,6-8c2.7-1.7,6.2-2.6,9.8-2.6c3.7,0,7,0.9,9.8,2.6c3.1,1.9,5.2,4.7,6,8.1
		c0.2,0.9,0,1.8-0.5,2.6C50.1,44.6,49.3,44.9,48.5,44.9z M16.7,27.9c-3.5,0-6.6-3.2-6.8-7.2c-0.1-2,0.5-3.9,1.8-5.3
		c1.3-1.4,3.1-2.1,5.1-2.1s3.8,0.8,5,2.1c1.3,1.4,1.9,3.3,1.8,5.3C23.2,24.7,20.2,27.9,16.7,27.9z M23.2,31c-1.7-0.9-4-1.3-6.5-1.3
		c-2.9,0-5.8,0.8-8,2.1c-2.5,1.6-4.2,3.9-4.9,6.6c-0.2,0.8,0,1.7,0.5,2.3c0.5,0.6,1.2,1,2,1h11c0.4,0,0.7-0.3,0.8-0.7
		c0-0.1,0-0.1,0-0.2c0.8-3.4,2.8-6.2,5.7-8.3c0.4-0.3,0.4-0.8,0.2-1.1c-0.1-0.1-0.1-0.2-0.2-0.2C23.6,31.2,23.4,31.1,23.2,31
		L23.2,31z"/>
</g>
<g id="tennisball" class="icon">
		<path style="fill:currentColor;" d="M44.1,27.5c0.9,0,1.9-0.1,2.8-0.2c-0.1-10.5-8.6-19-19.1-19.1c-0.2,0.9-0.2,1.8-0.2,2.8C27.5,20.1,34.9,27.5,44.1,27.5z
		M27.3,46.8c0.1-0.5,0.1-1,0.2-1.5c0-0.4,0-0.9,0-1.3c0-9.1-7.4-16.6-16.6-16.6c-0.9,0-1.9,0.1-2.8,0.2
		C8.3,38.2,16.8,46.7,27.3,46.8z"/>
		<path style="fill:currentColor;" d="M30.4,24.6c-3.6-3.6-5.7-8.5-5.7-13.7c0-0.9,0.1-1.7,0.2-2.6c-8.6,1.2-15.4,8-16.6,16.6c0.9-0.1,1.7-0.2,2.6-0.2
		c5.1,0,10.1,2,13.7,5.7c3.6,3.6,5.7,8.5,5.7,13.7c0,0.5,0,1-0.1,1.5c0,0.4-0.1,0.7-0.1,1.1c8.6-1.2,15.4-8,16.6-16.6
		c-0.9,0.1-1.7,0.2-2.6,0.2C38.9,30.3,34,28.2,30.4,24.6z"/>
</g>
<g id="signpost" class="icon">
	<path style="fill:currentColor;" d="M51.8,34.6l-6.1-6.1c-0.6-0.6-1.5-1-2.3-1H29.2v-3.3H44c1.8,0,3.3-1.5,3.3-3.3V11c0-1.8-1.5-3.3-3.3-3.3H29.2
		V6c0-0.9-0.7-1.7-1.7-1.7c-0.9,0-1.7,0.7-1.7,1.7v1.7H11.6c-0.9,0-1.7,0.3-2.3,1l-6.1,6.1c-0.6,0.6-0.6,1.7,0,2.3l6.1,6.1
		c0.6,0.6,1.5,1,2.3,1h14.2v3.3H11c-1.8,0-3.3,1.5-3.3,3.3v9.9c0,1.8,1.5,3.3,3.3,3.3h14.9v5c0,0.9,0.7,1.7,1.7,1.7
		c0.9,0,1.7-0.7,1.7-1.7v-5h14.2c0.9,0,1.7-0.3,2.3-1l6.1-6.1C52.5,36.3,52.5,35.2,51.8,34.6z"/>
</g>
<g id="balloon" class="icon">
		<path style="fill:currentColor;" d="M39.4,32c2.9-4.1,4.1-9,3.4-13.8C41.7,9.8,33.8,3.8,25.3,5c0,0,0,0,0,0c-8.5,1.2-14.4,9.1-13.2,17.6
			c0.7,4.8,3.2,9.1,7.1,12.3c2.2,1.7,4.6,3,7,3.5c0.4,0.1,0.6,0.4,0.5,0.8l-0.4,2.3c-0.1,0.3,0,0.6,0.1,0.9c0.2,0.5,0.7,0.8,1.3,0.8
			c0.1,0,0.1,0,0.2,0l1.6-0.2c0.1,0,0.2,0,0.2,0.1c1.5,3.2,4,5.6,7.3,6.9c0.7,0.3,1.5-0.1,1.8-0.8c0,0,0,0,0-0.1
			c0.3-0.7-0.1-1.5-0.9-1.8c-2.2-0.9-4.1-2.5-5.2-4.6c0-0.1,0-0.2,0.1-0.2c0,0,0,0,0.1,0l0.7-0.1c0.3,0,0.7-0.2,0.9-0.5
			c0.4-0.4,0.5-1.1,0.2-1.6l-1.1-2.1c-0.2-0.3,0-0.7,0.3-0.9C35.8,36.1,37.8,34.3,39.4,32L39.4,32z M25.7,33.5c-0.2,0-0.4,0-0.5-0.1
			c-3.6-1.4-6.7-4.7-8.1-8.4c-0.3-0.7,0.1-1.5,0.8-1.8c0.7-0.3,1.5,0.1,1.8,0.8c0,0,0,0,0,0c1.3,3.6,4.2,5.8,6.5,6.7
			c0.7,0.3,1.1,1.1,0.8,1.8C26.8,33.2,26.3,33.5,25.7,33.5L25.7,33.5z"/>
</g>
<g id="newspaper" class="icon">
	<path style="fill:currentColor;" d="M44.5,14.2h-2.2c0,0,0,0,0,0v28.1c0,1.6,1.3,3,3,3c1.6,0,3-1.3,3-3V17.9C48.2,15.8,46.6,14.2,44.5,14.2z"/>
	<path style="fill:currentColor;" d="M39.3,42.3V10.5c0-2-1.7-3.7-3.7-3.7H10.5c-2,0-3.7,1.7-3.7,3.7V43c0,2.9,2.3,5.2,5.2,5.2h31.7c0.1,0,0.1,0,0.1-0.1
			c0,0,0,0,0,0c0,0,0-0.1-0.1-0.1C41.1,47.3,39.3,45,39.3,42.3z M12.7,15.7c0-0.8,0.7-1.5,1.5-1.5h5.9c0.8,0,1.5,0.7,1.5,1.5v5.9
			c0,0.8-0.7,1.5-1.5,1.5h-5.9c-0.8,0-1.5-0.7-1.5-1.5V15.7z M31.9,40.8H14.2c-0.8,0-1.5-0.6-1.5-1.4c0-0.8,0.6-1.5,1.4-1.6
			c0,0,0,0,0.1,0h17.7c0.8,0,1.5,0.6,1.5,1.4C33.5,40.1,32.8,40.8,31.9,40.8C32,40.8,32,40.8,31.9,40.8z M31.9,34.9H14.2
			c-0.8,0-1.5-0.6-1.5-1.4c0-0.8,0.6-1.5,1.4-1.6c0,0,0,0,0.1,0h17.7c0.8,0,1.5,0.6,1.5,1.4C33.5,34.2,32.8,34.9,31.9,34.9
			C32,34.9,32,34.9,31.9,34.9z M31.9,29H14.2c-0.8,0-1.5-0.6-1.5-1.4c0-0.8,0.6-1.5,1.4-1.6c0,0,0,0,0.1,0h17.7
			c0.8,0,1.5,0.6,1.5,1.4C33.5,28.2,32.8,28.9,31.9,29C32,29,32,29,31.9,29z M31.9,23.1h-5.9c-0.8,0-1.5-0.6-1.5-1.4
			c0-0.8,0.6-1.5,1.4-1.6c0,0,0,0,0.1,0h5.9c0.8,0,1.5,0.6,1.5,1.4C33.5,22.3,32.8,23,31.9,23.1C32,23.1,32,23.1,31.9,23.1z
			 M31.9,17.1h-5.9c-0.8,0-1.5-0.6-1.5-1.4c0-0.8,0.6-1.5,1.4-1.6c0,0,0,0,0.1,0h5.9c0.8,0,1.5,0.6,1.5,1.4
			C33.5,16.4,32.8,17.1,31.9,17.1C32,17.1,32,17.1,31.9,17.1z"/>
</g>
<g id="calendar" class="icon">
	<path style="fill:currentColor;" d="M48.5,15.5c0-3.3-2.7-6-6-6H41V8c0-0.8-0.6-1.5-1.4-1.5c-0.8,0-1.5,0.6-1.6,1.4c0,0,0,0,0,0.1v1.5H17V8
		c0-0.8-0.6-1.5-1.4-1.5c-0.8,0-1.5,0.6-1.6,1.4c0,0,0,0,0,0.1v1.5h-1.5c-3.3,0-6,2.7-6,6v1.1c0,0.2,0.2,0.4,0.4,0.4h41.3
		c0.2,0,0.4-0.2,0.4-0.4V15.5z M6.5,42.5c0,3.3,2.7,6,6,6h30c3.3,0,6-2.7,6-6V20.3c0-0.2-0.1-0.3-0.3-0.3H6.8
		c-0.2,0-0.3,0.1-0.3,0.3V42.5z M38.8,23c1.2,0,2.3,1,2.3,2.3c0,1.2-1,2.3-2.3,2.3s-2.3-1-2.3-2.3l0,0C36.5,24,37.5,23,38.8,23z
		 M38.8,30.5c1.2,0,2.3,1,2.3,2.3S40,35,38.8,35s-2.3-1-2.3-2.3S37.5,30.5,38.8,30.5z M31.3,23c1.2,0,2.3,1,2.3,2.3
		c0,1.2-1,2.3-2.3,2.3s-2.3-1-2.3-2.3l0,0C29,24,30,23,31.3,23z M31.3,30.5c1.2,0,2.3,1,2.3,2.3s-1,2.3-2.3,2.3S29,34,29,32.8
		S30,30.5,31.3,30.5z M31.3,38c1.2,0,2.3,1,2.3,2.3s-1,2.3-2.3,2.3s-2.3-1-2.3-2.3S30,38,31.3,38z M23.7,30.5c1.2,0,2.3,1,2.3,2.3
		S25,35,23.7,35c-1.2,0-2.3-1-2.3-2.3S22.5,30.5,23.7,30.5z M23.7,38c1.2,0,2.3,1,2.3,2.3s-1,2.3-2.3,2.3c-1.2,0-2.3-1-2.3-2.3
		S22.5,38,23.7,38z M16.2,30.5c1.2,0,2.3,1,2.3,2.3s-1,2.3-2.3,2.3S14,34,14,32.8S15,30.5,16.2,30.5z M16.2,38c1.2,0,2.3,1,2.3,2.3
		s-1,2.3-2.3,2.3s-2.3-1-2.3-2.3S15,38,16.2,38z"/>
</g>
<g id="water" class="icon">
	<path style="fill:currentColor;" d="M28.5,6.4c-0.5-0.5-1.3-0.6-1.8-0.1c0,0-0.1,0.1-0.1,0.1c-3.3,3.9-14.3,17.4-14.3,27.5c0,9.3,5.9,15.2,15.2,15.2
		s15.2-5.9,15.2-15.2C42.7,23.8,31.8,10.3,28.5,6.4z M29.2,43.6c-0.7,0-1.3-0.6-1.3-1.3c0-0.1,0-0.3,0.1-0.4
		c0.2-0.5,0.7-0.9,1.2-0.8c3.5,0,6.3-2.8,6.3-6.3c0-0.5,0.3-1,0.8-1.2c0.7-0.2,1.4,0.1,1.6,0.8c0,0.1,0.1,0.3,0.1,0.4
		C38.1,39.6,34.1,43.6,29.2,43.6z"/>
</g>
<g id="email" class="icon">
	<path style="fill:currentColor;" d="M8.3,21.9c1.3,0.9,2.5,1.8,3.7,2.7c4.2,3.1,8.3,6.2,12.5,9.3c2,1.5,4.1,1.5,6.1,0C35.8,30,41,26.1,46.2,22.2
	c0.1-0.1,0.3-0.2,0.4-0.3c0,0.2,0,0.3,0,0.4c0,5,0,10,0,14.9c0,2.8-2.1,5-4.9,5c-9.5,0-19.1,0-28.6,0c-2.8,0-4.9-2.1-4.9-4.9
	c0-5.1,0-10.1,0-15.2C8.3,22.1,8.3,22,8.3,21.9L8.3,21.9z"/>
	<path style="fill:currentColor;" d="M27.5,13.4c5.1,0,10.2,0,15.3,0c2.1,0,3.6,1.2,3.8,3.3c0.2,1.3-0.4,2.4-1.5,3.2c-2.5,1.9-5,3.8-7.5,5.6
	c-2.8,2.1-5.6,4.2-8.4,6.3c-1.3,1-2.3,1-3.5,0c-5.3-4-10.6-7.9-15.8-11.9c-0.8-0.6-1.4-1.4-1.5-2.4c-0.3-1.9,1-3.8,2.9-4.1
	c0.4-0.1,0.8-0.1,1.2-0.1C17.5,13.4,22.5,13.4,27.5,13.4L27.5,13.4z"/>
</g>
<g id="android" class="icon">
	<path style="fill:currentColor;" d="M17.3,22c6.8-3,13.4-2.9,20.2,0c0.1-0.2,0.2-0.3,0.3-0.5c1.2-2.1,2.4-4.2,3.6-6.3c0.1-0.2,0.4-0.5,0.7-0.6
	c0.2-0.1,0.6,0,0.8,0.2c0.1,0.1,0.1,0.5,0.1,0.7c0,0.2-0.2,0.4-0.3,0.5c-1.1,2-2.3,3.9-3.4,5.9c-0.1,0.2-0.2,0.4-0.3,0.6
	c7.1,4.2,11.1,10.4,12.1,18.6c-15.7,0-31.5,0-47.2,0c1-8.2,5-14.3,12.1-18.6c-0.5-0.8-0.9-1.6-1.4-2.4c-0.8-1.4-1.6-2.8-2.4-4.1
	c-0.1-0.1-0.1-0.3-0.2-0.4c-0.2-0.4-0.2-0.7,0.2-1c0.4-0.2,0.9-0.2,1.1,0.2c0.2,0.3,0.3,0.6,0.5,0.8C14.9,17.8,16.1,19.9,17.3,22z
	 M18.5,32.6c0-1.1-0.9-1.9-2-2c-1,0-2,0.9-2,2c0,1,1,2,2,2C17.6,34.6,18.5,33.6,18.5,32.6z M38.4,34.6c1,0,2-1,2-2c0-1-1-2-2-2
	c-1.1,0-2,0.9-2,1.9C36.4,33.6,37.3,34.6,38.4,34.6z"/>
</g>
<g id="apple" class="icon">
	<path style="fill:currentColor;" d="M43.4,21.1c-1,1-2.1,1.8-2.9,2.9c-1.5,1.9-1.7,4.2-1.3,6.6c0.5,3,2.3,4.9,4.8,6.3c0.5,0.3,0.5,0.5,0.3,1
		c-1.3,3.2-2.9,6.1-5.5,8.5c-1.9,1.7-4,2-6.3,1c-2.2-1-4.5-1.3-6.9-0.5c-0.7,0.2-1.4,0.5-2.1,0.8c-2,0.7-3.7,0.3-5.3-1
		c-1.7-1.4-3-3.2-4.1-5.1c-1.7-2.9-2.9-6-3.4-9.4c-0.4-3-0.2-6,1.1-8.7c1.8-3.7,4.8-5.9,8.9-6c1.3-0.1,2.7,0.5,4.1,0.8
		c0.8,0.2,1.6,0.6,2.5,0.8c0.4,0.1,1,0.1,1.4-0.1c1.7-0.5,3.3-1.1,5-1.5C37.2,16.6,41.5,18.3,43.4,21.1z"/>
	<path style="fill:currentColor;" d="M36,7.7c0.8,3.8-3.4,9.9-8.2,9.5C26.8,13.3,31.4,7.9,36,7.7z"/>
</g>
<g id="info" class="icon">
	<path style="fill:currentColor;" d="M27.5,45.3c-10.1-0.2-17.4-8.2-17.4-17.5c0-9.2,7.3-17.3,17.4-17.4c9.7,0,17.5,7.9,17.4,17.4
	C44.9,37.2,37.6,45.1,27.5,45.3z M26.4,28.9c0,1.5,0,2.9,0,4.4c-1.1,0-2.1,0-3.2,0c0,1.1,0,2.2,0,3.3c2.9,0,5.8,0,8.8,0
	c0-1.1,0-2.2,0-3.3c-0.7,0-1.4,0-2.2,0c0-2.6,0-5.1,0-7.6c-2.2,0-4.4,0-6.6,0c0,1.1,0,2.2,0,3.3C24.3,28.9,25.3,28.9,26.4,28.9z
	 M29.8,19.1c-1.5,0-2.9,0-4.4,0c0,1.5,0,2.9,0,4.3c1.5,0,2.9,0,4.4,0C29.8,21.9,29.8,20.5,29.8,19.1z"/>
</g>
<g id="print" class="icon">
	<path style="fill:currentColor;" d="M11.6,38.4c-0.9,0-1.8,0-2.6,0c-1.6,0-2.7-1-2.7-2.6c0-2.7-0.1-5.4,0-8.1c0.1-3.1,2.4-5.2,5.6-5.2
		c5.2,0,10.5,0,15.7,0s10.5,0,15.7,0c2.8,0,5,1.8,5.5,4.5c0.1,0.4,0.1,0.7,0.1,1.1c0,2.5,0,4.9,0,7.4c0,2-1,2.9-3,2.9
		c-0.8,0-1.5,0-2.3,0c0,0.2,0,0.4,0,0.6c0,1.5,0,2.9,0,4.4c0,3.3-2.3,5.6-5.6,5.6c-6.9,0-13.8,0-20.7,0c-3.3,0-5.6-2.3-5.6-5.5
		c0-1.5,0-2.9,0-4.4C11.6,38.9,11.6,38.7,11.6,38.4L11.6,38.4z M38.2,35.8H16.9v7.9h21.3V35.8z M44.2,29.1c0-1.1-0.9-2-2-2
		c-1.1,0-2,0.9-2,2c0,1.1,0.9,2,2,2C43.3,31.2,44.2,30.2,44.2,29.1L44.2,29.1z"/>
	<path style="fill:currentColor;" d="M16.8,11.9v7.9h-5.2c0-0.1,0-0.2,0-0.2c0-2.6-0.1-5.3,0-7.9c0.1-2.9,2.4-5,5.3-5.1c6.3,0,12.6,0,18.9,0
		c1.3,0,2.5,0.4,3.4,1.3c1,1,2,1.9,2.9,2.9c0.8,0.9,1.3,2,1.3,3.2c0,1.8,0,3.6,0,5.4c0,0.1,0,0.2,0,0.3h-5.2c0-0.2,0-0.4,0-0.7
		c0-1.5,0-2.9,0-4.4c0-0.2-0.1-0.5-0.3-0.7c-0.6-0.7-1.3-1.3-1.9-1.9c-0.1-0.1-0.4-0.2-0.6-0.2c-6.1,0-12.2,0-18.3,0
		C17.1,11.9,17,11.9,16.8,11.9L16.8,11.9z"/>
</g>
<g id="megaphone" class="icon">
	<path style="fill:currentColor;" d="M32.7,40.5c-0.6,1.1-1.1,2.1-1.7,3c-1.9,2.5-5.3,3.5-8.4,2.7c-3.1-0.8-5.3-3.4-5.7-6.5
		c-0.2-1.2-0.1-2.3,0.2-3.4c0-0.1-0.1-0.3-0.2-0.5c0-0.1-0.2-0.1-0.3-0.1c-2.6-0.8-5.2-1.6-7.8-2.4c-0.1,0.1-0.1,0.3-0.1,0.4
		c-0.3,1.3-1.5,2.2-2.8,2.1c-1.5-0.2-2.4-1.1-2.4-2.7c0-3.5,0-7,0-10.5c0-1.6,0.9-2.6,2.4-2.8c1.4-0.2,2.5,0.7,2.9,2.2
		c0,0,0,0.1,0.1,0.2c11.5-3.5,23.1-7,34.7-10.5v31.9C39.9,42.7,36.3,41.6,32.7,40.5z M21.1,37c-0.5,1.7-0.3,3.1,0.9,4.3
		c1.1,1.2,2.6,1.6,4.1,1c1.4-0.5,2.3-1.5,2.7-3C26.2,38.5,23.7,37.8,21.1,37L21.1,37z"/>
	<path style="fill:currentColor;" d="M46.2,27.8c0-5.3,0-10.6,0-15.9c0-2.1,2-3.4,4-2.4c0.7,0.4,1.1,1,1.3,1.7c0.1,0.4,0.1,0.7,0.1,1.1
		c0,10.3,0,20.7,0,31c0,0.3,0,0.5,0,0.8c-0.2,1.5-1.3,2.4-2.7,2.4c-1.5-0.1-2.6-1.1-2.6-2.6C46.2,38.5,46.3,33.2,46.2,27.8
		L46.2,27.8z"/>
</g>
<g id="clock" class="icon">
	<path style="fill:currentColor;" d="M27.5,50.2C14.6,50,5.1,39.9,5.1,27.7c0-11.9,9.5-22.2,22.4-22.3c12.4,0,22.4,10,22.4,22.3
	C49.8,39.9,40.4,50,27.5,50.2z M25.4,21.9c0,1.8,0,3.6,0,5.4c0,1.1,0.4,1.9,1.3,2.5c2.6,1.7,5.2,3.4,7.7,5.1
	c0.2,0.1,0.4,0.3,0.7,0.4c1,0.4,2,0.1,2.6-0.7c0.6-0.9,0.5-1.9-0.3-2.6c-0.2-0.2-0.4-0.4-0.7-0.5c-2.2-1.5-4.4-2.9-6.6-4.4
	c-0.4-0.2-0.5-0.5-0.5-0.9c0-3.3,0-6.6,0-9.9c0-0.8-0.2-1.6-1-2c-1.5-0.9-3.2,0.1-3.2,1.9C25.3,18,25.4,20,25.4,21.9z"/>
</g>
<g id="tags" class="icon">
	<path style="fill:currentColor;" d="M15.8,7.8c2.1,0,4.2,0,6.3,0c1.7,0,3.2,0.6,4.4,1.8c5,5,9.9,9.9,14.9,14.9c2.3,2.3,2.4,5.6,0.1,8
		c-4,4.1-8,8.1-12.1,12.1c-2.3,2.2-5.8,2.1-8.2-0.2c-5-4.9-9.9-9.9-14.9-14.9c-1.1-1.1-1.7-2.5-1.7-4.1c0-4.3,0-8.7,0-13
		c0-2.7,1.8-4.5,4.5-4.6C11.4,7.8,13.6,7.8,15.8,7.8L15.8,7.8z M11.7,17.8c0,1.7,1.2,2.9,2.9,2.9c1.7,0,2.9-1.2,2.9-2.9
		c0-1.7-1.3-2.9-2.9-2.9C12.9,14.9,11.7,16.1,11.7,17.8L11.7,17.8z"/>
	<path style="fill:currentColor;" d="M50.4,28.3c0.1,3.5-1.2,6.5-3.6,8.9c-3.2,3.3-6.5,6.5-9.7,9.8c-0.9,0.9-1.8,1.1-2.7,0.6
		c-1.3-0.7-1.5-2.3-0.3-3.5c1.5-1.6,3.1-3.1,4.7-4.7c1.7-1.7,3.3-3.3,5-5c3.4-3.4,3.4-8.3,0-11.7c-3.7-3.7-7.3-7.4-11-11.1
		c-0.9-0.9-1.1-1.8-0.6-2.7c0.6-1.1,1.8-1.5,2.8-0.9c0.3,0.2,0.6,0.4,0.8,0.6c3.6,3.7,7.3,7.3,10.9,11C49,22.1,50.3,24.9,50.4,28.3z
		"/>
</g>
<g id="comments" class="icon">
	<path style="fill:currentColor;" d="M20.3,34.4c-2.5,0-5-0.4-7.3-1.5c-0.4-0.2-0.6-0.2-1,0c-1.6,0.9-3.4,1.3-5.3,1.4c-0.7,0-1.1-0.2-1.3-0.7
		c-0.2-0.5,0-0.8,0.5-1.3c0.7-0.8,1.3-1.6,2-2.4c0.3-0.4,0.2-0.7-0.1-1c-1.5-1.8-2.4-4-2.4-6.3c-0.1-3.4,1.2-6.2,3.6-8.5
		c2.8-2.6,6.1-3.9,9.9-4.1c4.6-0.2,8.6,1.1,11.9,4.2c2,1.9,3.2,4.3,3.4,7.1c0.3,3.9-1.3,7-4.2,9.5c-2.3,2-5,3-8,3.4
		c-0.3,0-0.6,0.1-0.9,0.1C20.8,34.3,20.6,34.4,20.3,34.4z"/>
	<path style="fill:currentColor;" d="M21.5,36.7c1.5-0.4,3-0.6,4.5-1.1c3.6-1.2,6.5-3.3,8.5-6.6c1.1-1.8,1.7-3.8,1.9-5.9c0.1-0.7,0-1.4,0-2.1
		c1.4,0.1,2.7,0.3,3.9,0.7c2.8,0.9,5.2,2.4,7,4.7c1.4,1.8,2.3,3.8,2.4,6.1c0.2,2.9-0.7,5.4-2.5,7.6C47,40.3,47,40.5,47,40.8
		c0.5,1,1.2,1.9,2.1,2.7c0.5,0.5,0.6,0.9,0.4,1.4c-0.2,0.5-0.6,0.7-1.3,0.7c-1.9-0.1-3.7-0.5-5.3-1.4c-0.3-0.2-0.6-0.2-0.9,0
		c-2.9,1.3-5.9,1.7-9,1.3c-3.5-0.4-6.6-1.8-9.1-4.3C22.9,39.8,22,38.3,21.5,36.7z"/>
</g>
<g id="home" class="icon">
	<path style="fill:currentColor;" d="M44.3,30.1c0,1.3,0,2.5,0,3.7c0,2.6,0,5.2,0,7.8c0,0.9,0,1.7-0.1,2.6c-0.1,1.4-1.3,2.5-2.7,2.6
	c-2.1,0.1-4.2,0.1-6.4,0c-1.5,0-2.7-1.3-2.8-2.9c0-2.1,0-4.2,0-6.3c0-1.9-0.9-2.7-2.7-2.7c-1.4,0-2.8,0-4.3,0
	c-1.6,0-2.6,0.9-2.6,2.6c0,2-0.1,4,0,6c0.1,2.1-1.5,3.5-3.4,3.4c-1.8-0.1-3.6,0-5.4,0c-1.9,0-3.2-1.2-3.2-3.2c0-4.3,0-8.6,0-12.9
	c0-0.2,0-0.4,0-0.7c-0.7,0-1.5,0.1-2.1,0c-0.6-0.1-1.2-0.2-1.7-0.5c-1.3-0.9-1.3-2.7,0-3.8c1.9-1.7,3.8-3.4,5.8-5
	c4.2-3.7,8.4-7.3,12.6-11c0.4-0.4,0.9-0.8,1.4-1c0.9-0.4,1.8-0.1,2.5,0.5c3.8,3.4,7.7,6.7,11.5,10.1c2.4,2.1,4.8,4.3,7.3,6.4
	c0.8,0.7,1.1,1.5,0.8,2.5c-0.3,1-1,1.6-2.1,1.8c-0.5,0.1-0.9,0-1.4,0C45.1,30.1,44.7,30.1,44.3,30.1z"/>
</g>
<g id="tour" class="icon">
	<path style="fill:currentColor;" d="M38.3,24c0-0.7,0-1.3,0-1.9c0.1-1.4,1.5-2.3,2.8-1.5c0.7,0.4,0.9,1.1,0.9,1.8c0,1.4,0,2.7,0,4.1
		c0,6.3,0,12.5,0,18.7c0,0.8-0.2,1.6-1,2c-1.2,0.6-2.5-0.2-2.6-1.5c0-0.2,0-0.4,0-0.6c0-5.2,0-10.3,0-15.4c0-0.2,0-0.4,0-0.7
		c-0.2,0-0.4,0-0.6,0c-1,0-2.1,0-3.1-0.1c-1-0.1-1.7-0.6-2.3-1.4c-0.4-0.5-0.8-1.1-1.2-1.7c-0.2,0.8-0.4,1.5-0.6,2.2
		c-0.3,1.1-0.5,2.2-0.8,3.3c-0.1,0.3,0,0.5,0.2,0.7c1.1,1.1,2.3,2.3,3.4,3.4c0.8,0.8,1.3,1.7,1.3,2.8c0,2.3,0.1,4.6,0,6.9
		c0,1.7-1.5,2.7-3.1,2.3c-1.1-0.3-1.7-1.1-1.8-2.3c0-2,0-4,0-6c0-0.4-0.1-0.6-0.4-0.9c-1.7-1.7-3.5-3.5-5.2-5.2
		c-1.4-1.4-1.9-3-1.4-4.9c0.5-2.1,1-4.2,1.6-6.3c0.9-3.2,3.9-4.6,7-3.2c1.1,0.5,2,1.3,2.6,2.3c0.6,0.9,1.2,1.9,1.8,2.8
		c0.1,0.2,0.4,0.3,0.6,0.3C36.9,24.1,37.5,24,38.3,24z"/>
	<path style="fill:currentColor;" d="M20.9,15.5c1.5,0,2.4,1.1,2,2.5c-0.9,3.5-1.8,7-2.7,10.6c-0.3,1.1-1.1,1.6-2.2,1.4s-2.3-0.4-3.4-0.6
		c-1.2-0.2-1.9-1.1-1.6-2.3c0.6-2.5,1.3-5,2.1-7.5C15.9,17,18.2,15.5,20.9,15.5z"/>
	<path style="fill:currentColor;" d="M21.4,33.9c1.3,1.3,2.6,2.6,3.8,3.8c0.1,0.1,0.2,0.3,0.1,0.5c-0.6,2.5-1.3,5-1.9,7.4c-0.3,0.9-0.9,1.6-1.9,1.8
		c-1,0.2-1.8-0.1-2.5-0.9c-0.5-0.6-0.6-1.3-0.4-2C19.6,41,20.5,37.5,21.4,33.9z"/>
	<path style="fill:currentColor;" d="M30.9,15.5c-2,0-3.7-1.7-3.6-3.7c0-2,1.7-3.7,3.7-3.6c2,0,3.7,1.7,3.6,3.7C34.6,13.8,32.9,15.5,30.9,15.5z"/>
</g>
<g id="location" class="icon">
	<path style="fill:currentColor;" d="M27.5,50.1c-1.8-2.2-3.6-4.3-5.3-6.4c-3.2-4.1-6.1-8.2-8.6-12.8c-1.4-2.5-2.3-5-2.7-7.7
	c-0.2-2.1,0.1-4.3,0.7-6.3c1.7-5.2,5.2-8.6,10.3-10.4c3.2-1.1,6.6-1.4,9.9-0.4c6.4,1.8,10.3,6,11.9,12.4c1,3.9,0.1,7.6-1.7,11.2
	C39,36,34.8,41.5,30.3,46.8C29.3,47.9,28.4,48.9,27.5,50.1L27.5,50.1z M21.8,22.2c0,3.1,2.6,5.5,5.5,5.5s5.6-2.6,5.5-5.5
	c0-3.1-2.6-5.5-5.6-5.5C24.4,16.6,21.8,19.2,21.8,22.2L21.8,22.2z"/>
</g>
<g id="map" class="icon">
	<path style="fill:currentColor;" d="M20.3,11.4c0,9.6,0,19.1,0,28.6c4.8,1.4,9.5,2.7,14.2,4.1c0-0.2,0-0.4,0-0.5c0-9.2,0-18.4,0-27.6
		c0-0.4-0.1-0.5-0.5-0.6c-3.1-0.9-6.2-1.8-9.3-2.7C23.3,12.3,21.9,11.9,20.3,11.4z M17.9,11.5c-0.1,0-0.2,0.1-0.3,0.1
		c-3.5,1.4-6.9,2.8-10.4,4.2c-0.9,0.3-1.3,1-1.3,2C6,25.9,6,34,6,42.2c0,1.7,1.2,2.5,2.8,1.9c2.9-1.2,5.8-2.3,8.6-3.5
		c0.4-0.1,0.5-0.3,0.5-0.7c0-9.3,0-18.4,0-27.7C17.9,11.9,17.9,11.7,17.9,11.5z M37.1,44c0.2-0.1,0.4-0.1,0.6-0.2
		c3.3-1.3,6.5-2.6,9.8-3.9c1.2-0.5,1.6-1,1.6-2.3c0-8,0-15.9,0-23.9c0-0.1,0-0.3,0-0.4c-0.1-1-0.6-1.7-1.5-1.8
		c-0.4,0-0.9,0.1-1.2,0.2c-2.9,1.1-5.8,2.3-8.7,3.4c-0.4,0.2-0.6,0.4-0.6,0.8c0,9.2,0,18.4,0,27.6C37.1,43.6,37.1,43.8,37.1,44z"/>
	<path style="fill:currentColor;" d="M20.3,11.4c1.5,0.4,3,0.9,4.5,1.3c3.1,0.9,6.2,1.8,9.3,2.7c0.4,0.1,0.5,0.2,0.5,0.6c0,9.2,0,18.4,0,27.6
		c0,0.1,0,0.3,0,0.5c-4.8-1.4-9.5-2.7-14.2-4.1C20.3,30.5,20.3,21,20.3,11.4z"/>
	<path style="fill:currentColor;" d="M17.9,11.5c0,0.2,0,0.4,0,0.5c0,9.3,0,18.4,0,27.7c0,0.4-0.1,0.6-0.5,0.7c-2.9,1.1-5.8,2.3-8.6,3.5
		c-1.6,0.6-2.8-0.2-2.8-1.9c0-8.2,0-16.2,0-24.4c0-0.9,0.4-1.6,1.3-2c3.5-1.4,6.9-2.8,10.4-4.2C17.7,11.6,17.7,11.6,17.9,11.5z"/>
	<path style="fill:currentColor;" d="M37.1,44c0-0.2,0-0.4,0-0.6c0-9.2,0-18.4,0-27.6c0-0.5,0.1-0.6,0.6-0.8c2.9-1.1,5.8-2.3,8.7-3.4
		c0.4-0.1,0.8-0.3,1.2-0.2c0.8,0.1,1.4,0.8,1.5,1.8c0,0.1,0,0.3,0,0.4c0,8,0,15.9,0,23.9c0,1.3-0.3,1.8-1.6,2.3
		c-3.3,1.3-6.5,2.6-9.8,3.9C37.5,43.9,37.3,44,37.1,44z"/>
</g>
<g id="instagram" class="icon">
	<path style="fill:currentColor;" d="M27.5,10.9c2.6,0,5.1,0,7.7,0c4.6,0.1,8.7,3.8,9.2,8.5c0.2,1.7,0.2,3.4,0.2,5.1c0,2.5,0.1,5.1,0,7.6
		c0,1.7,0,3.5-0.4,5.2c-0.9,4.5-4.5,7.4-9.1,7.5c-3.4,0.1-6.8,0.2-10.3,0.2c-2.1,0-4.1-0.1-6.2-0.3c-3.8-0.4-7-3.3-7.8-7.1
		c-0.3-1.6-0.4-3.2-0.4-4.8c-0.1-3.4,0-6.8,0-10.2c0-1.4,0.1-2.9,0.4-4.3c0.8-3.9,4.2-6.9,8.1-7.2C21.7,10.9,24.6,10.9,27.5,10.9
		C27.5,10.8,27.5,10.8,27.5,10.9z M13.5,27.8L13.5,27.8c0.1,1.3,0,2.6,0.1,3.9c0.1,1.6,0.1,3.2,0.3,4.8c0.3,2.8,2.6,4.8,4.9,5
		c1.3,0.1,2.5,0.3,3.8,0.3c2.5,0.1,5,0.1,7.5,0c2,0,4.1-0.1,6.1-0.3c2.7-0.3,4.6-2.2,5.1-4.8c0.2-1.3,0.3-2.7,0.4-4
		c0.1-2.5,0.1-4.9,0-7.4c0-1.9-0.1-3.9-0.3-5.8c-0.4-3.1-2.3-5-5.3-5.4c-1.8-0.2-3.6-0.3-5.5-0.3c-3.6,0-7.2,0.1-10.8,0.2
		c-2,0.1-3.8,0.9-5,2.6c-0.9,1.3-1.1,2.7-1.1,4.2C13.6,23.1,13.6,25.4,13.5,27.8z"/>
	<path style="fill:currentColor;" d="M36.7,16.7c-1.1,0-2,0.8-2,1.9c0,1.2,0.8,2.1,2,2.1c1.1,0,2.1-0.9,2.1-2C38.6,17.8,38.1,16.8,36.7,16.7z"/>
	<path style="fill:currentColor;" d="M18.8,27.8c0-4.8,3.9-8.7,8.7-8.8c4.8,0,8.8,3.9,8.8,8.7s-3.9,8.7-8.7,8.8C22.7,36.5,18.8,32.6,18.8,27.8z
		 M21.8,27.8c0.1,3.3,2.7,5.8,5.9,5.7c3.3-0.1,5.7-2.7,5.6-6c-0.1-3.1-2.8-5.6-5.9-5.5C24.3,22.1,21.8,24.5,21.8,27.8z"/>
	<path style="fill:currentColor;" d="M36.7,16.7c1.5,0,2,1,2,2c0.1,1.1-1,2.1-2.1,2c-1.1,0-2-0.9-2-2.1C34.6,17.5,35.5,16.7,36.7,16.7z"/>
</g>
<g id="facebook" class="icon">
	<path style="fill:currentColor;" d="M30.5,27.8c0-1.5-0.1-2.8,0-4.2c0.1-1.3,1.1-2.2,2.4-2.2c1-0.1,2,0,3,0c0-0.5,0-0.9,0-1.3c0-1,0-2,0-3
	c0-0.3,0-0.4-0.4-0.5c-1.9-0.3-3.9-0.5-5.8-0.1c-2.8,0.6-4.7,2.6-5,5.5c-0.2,1.7-0.1,3.3-0.2,5c0,0.2,0,0.5,0,0.7
	c-1.6,0-3.2,0-4.8,0c0,1.8,0,3.6,0,5.5c1.5,0,3.1,0,4.7,0c0,3.9,0,7.7,0,11.6c-0.2,0-0.4,0-0.5,0c-3.2,0-6.3,0-9.5,0
	c-2.5,0-4-1.5-4-3.9c0-8.7,0-17.4,0-26.1c0-2.5,1.5-3.9,4-3.9c8.7,0,17.4,0,26.1,0c2,0,3.3,1,3.8,2.7c0.1,0.4,0.1,0.8,0.1,1.3
	c0,8.7,0,17.3,0,26c0,2.5-1.5,4-4,4c-3.2,0-6.4,0-9.6,0c-0.1,0-0.3,0-0.5,0c0-3.8,0-7.7,0-11.5c1.4,0,2.9,0,4.4,0
	c0.3-1.8,0.6-3.6,0.8-5.5C34,27.8,32.3,27.8,30.5,27.8z"/>
</g>
<g id="twitter" class="icon">
	<path style="fill:currentColor;" d="M31.3,24.4L46.2,7.1h-3.5l-12.9,15l-10.3-15H7.5l15.6,22.7L7.5,47.9H11l13.6-15.9l10.9,15.9h11.9L31.3,24.4L31.3,24.4z
	 M26.5,30l-1.6-2.3l-12.6-18h5.4l10.2,14.5l1.6,2.3l13.2,18.9h-5.4L26.5,30L26.5,30z"/>
</g>
<g id="youtube" class="icon">
	<path style="fill:currentColor;" d="M26.1,42.8c-2.7-0.1-6.7-0.2-10.7-0.4c-1.4-0.1-2.7-0.2-4.1-0.4c-2.4-0.4-4.1-2.1-4.5-4.5
	C6.2,33.3,6.1,29,6.2,24.8C6.3,22.4,6.5,20,7,17.8c0.4-2.1,2.4-4,4.6-4.2c3-0.3,6.1-0.5,9.1-0.6c2.8-0.1,5.6-0.1,8.4-0.1
	c3.6,0,7.1,0.2,10.7,0.3c1.3,0.1,2.7,0.2,4,0.4c2.4,0.4,4.1,2.3,4.6,4.8c0.8,4.5,0.8,9.1,0.5,13.5c-0.1,1.9-0.4,3.9-0.7,5.8
	c-0.4,2.3-2.3,4.1-4.7,4.4C38.1,42.7,32.8,42.7,26.1,42.8z M23.1,34.1c3.8-2.2,7.5-4.3,11.3-6.5c-3.8-2.1-7.5-4.2-11.3-6.4
	C23.1,25.6,23.1,29.8,23.1,34.1z"/>
</g>
<g id="mailchimp" class="icon">
	<path style="fill:currentColor;" d="M37.7,19.2c1.7,1.8,1.8,4,1.7,6.3c0,0.4,0.1,0.6,0.5,0.7c0.5,0.1,1.1,0.3,1.6,0.5c1.1,0.5,1.9,1.2,2,2.4
		c0.1,0.5-0.2,1.1-0.3,1.6c0,0.2-0.1,0.5,0,0.8c0,0.2,0.1,0.4,0.2,0.6c0.1,0.4,0.2,0.7,0.6,0.8c0.7,0.3,0.9,1,0.9,1.7
		c0,1.3-0.2,2.5-0.8,3.7c-2.2,4.8-6,7.3-11.2,7.9c-3.2,0.4-6.2-0.2-9-1.5c-2.6-1.3-4.5-3.3-5.9-5.9c-0.2-0.4-0.4-0.7-0.9-0.8
		c-3.5-0.4-5.7-3.6-4.8-7c0.1-0.5,0.1-0.8-0.4-1.1c-1.8-1.2-2.1-2.9-1.6-4.9c0.7-2.4,1.9-4.4,3.4-6.4c2.2-2.9,4.8-5.6,7.9-7.6
		c1.3-0.8,2.7-1.6,4.4-1.7c1.2-0.1,2.3,0.3,3.1,1.2c0.4,0.4,0.8,0.8,1.2,1.1c0.1,0.1,0.4,0.1,0.6,0.1c1.3-0.4,2.5-0.9,3.8-1.1
		c1-0.2,2.1-0.1,3,0c2.1,0.4,3,1.9,2.5,4c-0.3,1.6-1.2,2.8-2.3,4c-0.1,0.1-0.2,0.2-0.3,0.3C37.7,19.1,37.7,19.1,37.7,19.2z
		 M41.8,35.1c0,0.1,0.1,0.1,0.1,0.2c-0.6,0.5-1.2,1.1-1.9,1.5c-2.2,1.3-4.6,1.8-7.1,1.6c-1-0.1-2.1-0.3-2.9-1
		c-0.8-0.7-1.1-1.9-0.7-2.8c0.4-0.9,0.9-1.1,2.2-1c2.2,0.2,4.4,0.1,6.5-0.6c1.4-0.5,2.8-1.1,3.9-2.2c0.9-1,0.7-2.1-0.5-2.7
		c-0.6-0.3-1.3-0.5-2-0.7c-0.9-0.3-1.1-0.5-1.1-1.5c0-1.1-0.1-2.2-0.2-3.3c-0.1-0.7-0.4-1.4-1.2-1.7c-0.7-0.3-1.3,0-1.9,0.5
		c-0.8,0.6-1.7,1.1-2.7,1.1c-0.7,0-1.5-0.2-2.2-0.2c-0.6,0-1.2,0-1.6,0.3c-2.2,1-3,3.7-1.8,5.8c0.4,0.7,1,1.4,1.5,2.1
		c0.2,0.3,0.4,0.5,0.1,0.8c-0.9,0.9-1.4,2-1.6,3.2c-0.7,3.1,0.4,6,3.4,7.5c1.8,0.9,3.6,1.1,5.6,0.8c3.1-0.5,5.7-2,7.3-4.8
		c0.5-0.9,0.9-1.9,0.9-3c0-0.5-0.2-0.8-0.7-1c-0.2-0.1-0.3-0.3-0.4-0.4c-0.2-0.5-0.3-1.1-0.5-1.6c-0.4,0.2-0.6,0.4-0.9,0.6
		c-1.1,0.7-2.3,1.3-3.6,1.6c-2.1,0.5-4.2,0.8-6.3,0.4c-0.7-0.1-1.1,0.1-1.3,0.7c1.8,0.7,3.7,0.8,5.7,0.6c-1.9,0.9-3.8,0.5-5.8,0
		c0,0.9,0.6,1.2,1.3,1.4c1.8,0.7,3.7,0.5,5.5,0.1C38.6,36.9,40.3,36.2,41.8,35.1z M29.2,12.8c0.1-0.1,0.1-0.1,0.2-0.2
		c-0.5-0.4-0.9-0.7-1.3-1.1s-0.9-0.7-1.6-0.6c-1.1,0.1-2.2,0.5-3.2,1c-3.3,1.8-5.9,4.3-8.2,7.2c-1.5,1.9-2.7,3.9-3.4,6.2
		c-0.7,2.3-0.2,3,1.3,4.1c0.1-0.1,0.2-0.3,0.4-0.4c0.5-0.6,1.2-1.1,2-1.3c0.5-0.1,0.7-0.4,0.9-0.8c0.8-2.1,1.8-4,3.2-5.8
		c2.1-2.9,4.8-5.1,7.8-7.1C27.9,13.7,28.6,13.3,29.2,12.8z M16.9,28.6c-1.2,0.1-2.2,0.7-2.9,1.8c-1.3,2.3-0.1,5.3,2.5,6.2
		c1.9,0.6,3.4-0.2,3.9-2.1c0.3-1.3,0.2-2.6-0.4-3.9C19.4,29.3,18.3,28.7,16.9,28.6z M23.3,19.8c1.7-1,3.5-1.8,5.4-2.2
		c1.9-0.4,3.9-0.2,5.8,0c-1-0.7-2.2-0.9-3.4-1.1c0.2-0.3,0.4-0.5,0.7-0.8c-1.5,0.1-2.8,0.6-4.2,1.4c0.1-0.4,0.2-0.8,0.4-1.2
		C26.1,17,24.6,18.3,23.3,19.8z"/>
	<path style="fill:currentColor;" d="M19.2,34.3c-0.1,0-0.1,0-0.2,0c-0.8,0-1-0.4-0.7-1.1c0.1-0.2,0.2-0.4,0.2-0.6c0.2-0.7,0.2-1.4-0.4-2
		c-0.5-0.5-1.1-0.6-1.8-0.4c-0.8,0.3-1.2,0.9-1.3,1.7c0,0.2,0.1,0.4,0.1,0.7c0.1,0,0.1,0,0.2,0c0.1-0.2,0.1-0.3,0.2-0.5
		c0.3-0.7,0.9-1.1,1.5-0.9c0.6,0.2,0.8,0.7,0.6,1.6c-0.1,0.5-0.1,1.1,0.1,1.5C18,35,18.8,35,19.2,34.3z"/>
	<path style="fill:currentColor;" d="M37.2,26.8c-0.6,0.2-0.9-0.1-1.1-0.6c-0.1-0.4-0.3-0.9-0.3-1.3c0-0.2,0.2-0.6,0.4-0.7c0.3-0.2,0.6,0.1,0.7,0.4
		C37.2,25.3,37.4,26.1,37.2,26.8z"/>
	<path style="fill:currentColor;" d="M28.7,27.6c0.3-0.7,1.2-1.2,2-1.1c0.9,0,1.6,0.5,1.8,1.2c-0.7-0.2-1.3-0.4-1.9-0.4
		C30.1,27.2,29.4,27.5,28.7,27.6z"/>
	<path style="fill:currentColor;" d="M30.2,28.7c0.4-0.8,1.7-1,2.2-0.3C31.7,28.5,31,28.6,30.2,28.7z"/>
	<path style="fill:currentColor;" d="M37.7,28.4c-0.3,0.3-0.5,0.5-0.7,0.6c-0.1-0.2-0.4-0.4-0.4-0.6s0.3-0.4,0.4-0.6C37.2,27.9,37.4,28.1,37.7,28.4
		z"/>
	<path style="fill:currentColor;" d="M35.8,29.3c-0.2,0.1-0.4,0.3-0.5,0.3c-0.3,0-0.7-0.2-0.6-0.6c0-0.1,0.3-0.4,0.4-0.3c0.3,0.1,0.5,0.3,0.8,0.4
		C35.8,29.1,35.8,29.2,35.8,29.3z"/>
	<path style="fill:currentColor;" d="M19.2,34.3c-0.4,0.6-1.3,0.7-1.5,0c-0.2-0.5-0.2-1-0.1-1.5c0.2-0.8,0-1.4-0.6-1.6c-0.6-0.2-1.2,0.1-1.5,0.9
		c-0.1,0.2-0.1,0.3-0.2,0.5c-0.1,0-0.1,0-0.2,0c-0.1-0.2-0.2-0.5-0.1-0.7c0.2-0.8,0.5-1.4,1.3-1.7c0.7-0.3,1.3-0.1,1.8,0.4
		c0.6,0.6,0.6,1.3,0.4,2c-0.1,0.2-0.2,0.4-0.2,0.6c-0.3,0.7,0,1.1,0.7,1.1C19.1,34.3,19.2,34.3,19.2,34.3z"/>
</g>
<g id="menu" class="icon">
	<path style="fill:currentColor;" d="M27.5,12.8c-7.3,0-14.6,0-21.9,0c-0.8,0-1.6-0.2-2.3-0.4C2,11.8,1.2,10.3,1.4,8.7s1.2-2.8,2.7-3.2
		C4.5,5.4,5,5.4,5.4,5.4c14.7,0,29.5,0,44.2,0c2.9,0,4.6,2.2,3.9,4.8c-0.4,1.6-1.8,2.6-3.6,2.6c-1.2,0-2.4,0-3.7,0
		C40,12.8,33.8,12.8,27.5,12.8z"/>
	<path style="fill:currentColor;" d="M27.5,31.5c-7.3,0-14.5,0-21.8,0c-0.8,0-1.6-0.1-2.3-0.4c-1.4-0.6-2.1-2.1-2-3.7c0.2-1.6,1.2-2.8,2.7-3.2
		C4.5,24.1,4.9,24,5.4,24c14.7,0,29.5,0,44.2,0c2.9,0,4.6,2.1,3.9,4.8c-0.4,1.5-1.5,2.4-3.2,2.6c-0.4,0-0.8,0-1.3,0
		C41.8,31.5,34.7,31.5,27.5,31.5z"/>
	<path style="fill:currentColor;" d="M27.5,50.2c-7.3,0-14.6,0-21.9,0c-0.8,0-1.6-0.2-2.3-0.4c-1.4-0.6-2.1-2.1-1.9-3.7s1.2-2.8,2.7-3.2
		c0.4-0.1,0.9-0.2,1.3-0.2c14.7,0,29.5,0,44.2,0c2.9,0,4.6,2.2,3.9,4.8c-0.4,1.6-1.8,2.6-3.6,2.6c-1.2,0-2.4,0-3.7,0
		C40,50.2,33.8,50.2,27.5,50.2z"/>
</g>
<g id="search" class="icon">
	<path style="fill:currentColor;" d="M34.1,38.2c-4.6,3.2-9.6,4.2-14.8,3.1c-4.6-1-8.3-3.5-11-7.4c-5-7.1-4.1-17.1,2.2-23.3
	c6.6-6.5,16.9-6.8,23.9-1.4s9.8,16.4,3.4,25.3c0.2,0.1,0.4,0.2,0.6,0.4c3.5,3.4,7,6.9,10.5,10.4c0.9,0.9,1.2,1.9,0.9,3.1
	c-0.5,1.8-2.7,2.4-4.3,1.4c-0.3-0.2-0.5-0.4-0.8-0.7c-3.4-3.4-6.8-6.9-10.2-10.3C34.3,38.6,34.2,38.4,34.1,38.2z M23.2,36.2
	c7,0,12.7-5.6,12.7-12.6c0-7.1-5.6-12.7-12.7-12.7c-7,0-12.7,5.6-12.7,12.6S16.2,36.2,23.2,36.2z"/>
</g>
<g id="bowling" class="icon">
	<path style="fill:currentColor;" d="M20.5,13.5C31.2,13.7,39,22,38.9,32.2c-0.1,10.6-8.5,18.5-18.6,18.4C9.7,50.5,1.7,42.3,1.7,32
		C1.8,21.3,10.2,13.5,20.5,13.5z M12.8,27c1.4,0,2.5-1.1,2.5-2.5S14.2,22,12.8,22s-2.5,1.1-2.5,2.5S11.4,27,12.8,27z M19.3,22.7
		c1.4,0,2.5-1.1,2.5-2.5s-1.1-2.5-2.5-2.5c-1.4,0-2.5,1.1-2.5,2.5S17.8,22.7,19.3,22.7z M19.3,30.6c1.4,0,2.5-1.1,2.5-2.6
		c0-1.4-1.1-2.5-2.6-2.5c-1.4,0-2.5,1.1-2.5,2.5C16.8,29.5,17.9,30.6,19.3,30.6z"/>
	<path style="fill:currentColor;" d="M41.1,22c2.4,0,4.8,0,7.2,0c0.8,2.3,1.7,4.6,2.5,7c0.7,1.9,1.5,3.8,2,5.7c0.9,3.2,0.6,6.4-0.6,9.5
		c-0.6,1.5-1.2,2.9-1.8,4.4c-0.6,1.5-1.6,2.2-3.2,2.2c-1.7,0-3.4,0-5,0c-1.6,0-2.6-0.7-3.2-2.2c-0.4-1-0.8-2.1-1.2-3.1
		c-0.1-0.3-0.1-0.6,0.1-0.9c3.2-4.4,4.4-9.4,3.8-14.7c-0.2-1.6-0.7-3.2-1.1-4.8c-0.1-0.5-0.2-1,0-1.5C40.8,23,40.9,22.5,41.1,22z"/>
	<path style="fill:currentColor;" d="M48.4,19.2c-2.4,0-4.8,0-7.3,0c-0.5-1.7-0.9-3.3-1.4-5c-0.3-1.1-0.6-2.1-0.7-3.2c-0.2-3.2,2.2-6.1,5.7-6.1
		c3.3,0,6,3,5.7,6.3c-0.1,0.9-0.3,1.7-0.5,2.6C49.4,15.5,48.9,17.3,48.4,19.2z"/>
</g>
<g id="service-bell" class="icon">
	<path style="fill:currentColor;" d="M48.1,38.1c-13.7,0-27.4,0-41.1,0c-0.3-8.2,6-18.9,18.3-20.5c0-1,0-2,0-3c-1.2,0-2.4,0-3.6,0
		c0-1.5,0-2.9,0-4.4c3.9,0,7.8,0,11.7,0c0,1.4,0,2.8,0,4.3c-1.2,0-2.4,0-3.6,0c0,1.1,0,2.1,0,3.1C40.8,18.7,48.3,28.7,48.1,38.1z"/>
	<path style="fill:currentColor;" d="M4,45.4c0-1.4,0-2.9,0-4.3c15.6,0,31.4,0,47,0c0,1.4,0,2.8,0,4.3C35.4,45.4,19.7,45.4,4,45.4z"/>
</g>
<g id="swimming" class="icon">
	<path style="fill:currentColor;" d="M29.3,20.9c1.9-1,3.9-1.6,5.9-1.6c2.1,0,4.2,0,6.2,0c1.5,0,2.5-0.8,2.9-2c0.5-2-0.7-3.7-2.8-3.7
		c-1.9,0-3.7,0-5.6,0c-2.5,0.1-4.9,0.4-7.3,1.3c-6.4,2.6-10.4,7.3-12.1,13.9c-0.3,1.3-0.4,2.7-0.7,4.1c1.5,0.6,3,0.7,4.5,0.4
		c1.5-0.3,2.8-1,4.1-1.8c0.8-0.5,1.7-0.8,2.7-0.8c1.4-0.1,2.6,0.5,3.8,1.2c2.3,1.5,4.8,2,7.5,1.2c1.1-0.4,2.1-1,3.1-1.6
		C37.5,27.8,33.5,24.4,29.3,20.9z M1.9,39.1c0,1.8,1.7,3.2,3.5,2.8C7,41.5,8.6,41,10.1,40c0.4-0.3,0.8-0.3,1.2,0
		c2.5,1.3,5.1,2,7.9,2c2.8-0.1,5.4-0.7,7.8-2.1c0.4-0.2,0.8-0.2,1.2,0c2.7,1.5,5.6,2.2,8.6,2.1c2.6-0.1,5.1-0.8,7.4-2
		c0.3-0.2,0.6-0.2,0.9,0.1c1.5,1,3.2,1.6,4.9,2c1.2,0.3,2.6-0.5,3-1.7c0.5-1.3,0.1-2.7-1-3.4c-0.3-0.2-0.6-0.3-0.9-0.4
		c-1.6-0.4-3.1-1.2-4.4-2.2c-1.3-1-2.3-1-3.8-0.1c-0.2,0.1-0.5,0.3-0.7,0.4c-4,2.3-8.1,2.5-12,0c-1.8-1.1-3.2-1.2-5,0
		c-2.1,1.4-4.6,2-7.2,1.7c-2-0.2-3.9-1-5.6-2.1c-1.2-0.8-2.4-0.9-3.5-0.1c-1.5,1.1-3.2,2-5,2.5C2.6,36.9,1.8,38,1.9,39.1z M4.7,19.3
		c0,3.1,2.6,5.7,5.7,5.7c3,0,5.6-2.6,5.7-5.6c0-3.1-2.6-5.7-5.7-5.7C7.2,13.7,4.8,16.1,4.7,19.3z"/>
	<path style="fill:currentColor;" d="M29.3,20.9c4.1,3.6,8.2,7,12.3,10.6c-1,0.7-2,1.3-3.1,1.6c-2.7,0.9-5.2,0.3-7.5-1.2c-1.2-0.8-2.4-1.3-3.8-1.2
		c-1,0-1.9,0.3-2.7,0.8c-1.3,0.8-2.6,1.5-4.1,1.8c-1.5,0.3-2.9,0.2-4.5-0.4c0.2-1.3,0.3-2.7,0.7-4.1c1.7-6.7,5.7-11.4,12.1-13.9
		c2.3-0.9,4.8-1.3,7.3-1.3c1.9,0,3.7,0,5.6,0c2.1,0,3.4,1.7,2.8,3.7c-0.3,1.2-1.4,2-2.9,2c-2.1,0-4.2,0-6.2,0
		C33.2,19.3,31.3,19.9,29.3,20.9z"/>
	<path style="fill:currentColor;" d="M1.9,39.1c0-1.1,0.7-2.2,1.9-2.6c1.8-0.5,3.5-1.3,5-2.5c1.1-0.9,2.4-0.7,3.5,0.1c1.7,1.1,3.6,1.8,5.6,2.1
		c2.6,0.3,5.1-0.3,7.2-1.7c1.8-1.2,3.2-1.1,5,0c3.9,2.5,8,2.3,12,0c0.2-0.1,0.5-0.3,0.7-0.4c1.4-0.9,2.4-0.9,3.8,0.1
		c1.3,1,2.8,1.8,4.4,2.2c0.3,0.1,0.6,0.2,0.9,0.4c1.1,0.7,1.5,2.1,1,3.4c-0.5,1.2-1.8,2-3,1.7c-1.7-0.4-3.4-1-4.9-2
		c-0.3-0.2-0.6-0.2-0.9-0.1c-2.3,1.2-4.8,2-7.4,2c-3,0.1-5.9-0.6-8.6-2.1c-0.4-0.2-0.8-0.2-1.2,0c-2.4,1.4-5.1,2-7.8,2.1
		c-2.8,0.1-5.4-0.7-7.9-2c-0.5-0.2-0.8-0.3-1.2,0c-1.4,0.9-3,1.5-4.7,1.9C3.5,42.3,1.9,41,1.9,39.1z"/>
	<path style="fill:currentColor;" d="M4.7,19.3c0.1-3.2,2.5-5.6,5.7-5.7c3.1,0,5.7,2.7,5.7,5.7c0,3.1-2.6,5.6-5.7,5.6C7.3,24.9,4.7,22.3,4.7,19.3z"
		/>
</g>
<g id="book" class="icon">
	<path style="fill:currentColor;" d="M44.8,40.7c0.2,0,0.3,0.1,0.5,0.1c1.5,0.3,2.4,1.4,2.4,2.9s-0.9,2.5-2.4,2.7c-0.3,0-0.5,0-0.8,0
		c-9.4,0-18.8,0-28.2,0c-3.9,0-7.2-2.2-8.3-5.7c-0.3-0.9-0.5-2-0.5-3c0-9.5,0-19,0-28.5c0-4.3,2.8-7.7,6.9-8.5
		c0.7-0.1,1.3-0.2,2-0.2c9.4,0,18.7,0,28.1,0c2.2,0,3.2,1.1,3.2,3.2c0,9.3,0,18.6,0,27.9c0,2.2-0.7,3-2.8,3.4
		C44.8,36.9,44.8,38.8,44.8,40.7z M39,34.9c-0.3,0-0.5,0-0.8,0c-7.2,0-14.5,0-21.7,0c-0.3,0-0.5,0-0.8,0c-1,0.1-1.7,0.5-2.2,1.4
		c-1.2,2.1,0.2,4.4,2.7,4.4c7.4,0,14.9,0,22.3,0c0.2,0,0.3,0,0.5,0C39,38.8,39,36.9,39,34.9z M28.9,11.9c-2.9,0-5.7,0-8.6,0
		c-0.9,0-1.5,0.6-1.5,1.5s0.6,1.4,1.5,1.4c1,0,1.9,0,2.9,0c4.7,0,9.4,0,14.1,0c0.8,0,1.4-0.3,1.6-0.9c0.4-1.1-0.3-2-1.5-2
		C34.6,11.9,31.8,11.9,28.9,11.9z M28.8,20.6c2.9,0,5.7,0,8.6,0c0.8,0,1.3-0.3,1.5-0.9c0.4-1.1-0.3-2-1.5-2c-3,0-6,0-8.9,0
		c-2.7,0-5.4,0-8,0c-0.7,0-1.2,0.2-1.5,0.8c-0.4,1,0.2,2.1,1.4,2.1C23.2,20.6,26,20.6,28.8,20.6z"/>
</g>
<g id="picnic-table" class="icon">
	<path style="fill:currentColor;" d="M38.1,15.8c0.3,0.7,0.6,1.4,0.8,2.1c0.9,2.2,1.8,4.3,2.6,6.5c0.1,0.4,0.3,0.5,0.7,0.5c2.1,0,4.2,0,6.3,0
		c2.2,0,3.5,1.7,3,3.8c-0.3,1-0.9,1.7-1.9,1.9c-0.5,0.1-1,0.2-1.5,0.2c-13.6,0-27.3,0-40.9,0c-0.2,0-0.4,0-0.6,0c-1.8-0.1-3-1.3-3-3
		c0-1.7,1.2-2.9,3-3c1.8,0,3.6,0,5.3,0s1.7,0,2.3-1.5c0.9-2.3,1.9-4.6,2.8-6.9c0.1-0.2,0.1-0.4,0.2-0.6c-1.5,0-2.9,0-4.3,0
		c-0.6,0-1.2-0.1-1.7-0.3c-0.8-0.5-1.4-1.7-1.3-3s0.9-2.3,2.1-2.6c0.3-0.1,0.7-0.1,1.1-0.1c9.9,0,19.7,0,29.6,0
		c2.3,0,3.6,1.7,3.1,3.9c-0.3,1.3-1.4,2.1-2.9,2.1c-1.4,0-2.7,0-4.1,0C38.5,15.8,38.4,15.8,38.1,15.8z M35.3,24.8
		c0-0.2-0.1-0.3-0.1-0.4c-1.1-2.7-2.2-5.5-3.3-8.2c-0.2-0.4-0.4-0.4-0.7-0.4c-2.3,0-4.6,0-6.8,0c-0.5,0-0.6,0.2-0.8,0.6
		c-1.1,2.6-2.1,5.3-3.2,7.9c-0.2,0.1-0.2,0.3-0.3,0.5C25.2,24.8,30.2,24.8,35.3,24.8z"/>
	<path style="fill:currentColor;" d="M16.4,33.8c-0.1,0.2-0.1,0.4-0.2,0.5c-1.2,3.1-2.5,6.2-3.7,9.4c-0.6,1.5-1.9,2.3-3.3,2.1
		c-1.8-0.2-3-2.2-2.3-4.1c1-2.5,2-5,3-7.5c0.1-0.1,0.3-0.3,0.4-0.3C12.4,33.8,14.3,33.8,16.4,33.8z"/>
	<path style="fill:currentColor;" d="M39,33.8c2.1,0,4.1,0,6.2,0c0.1,0,0.3,0.2,0.4,0.3c1,2.5,2.1,5,3,7.5c0.6,1.6-0.2,3.4-1.7,4
		c-1.5,0.6-3.2-0.2-3.9-1.8c-0.7-1.6-1.3-3.2-1.9-4.8c-0.6-1.5-1.2-3-1.8-4.5C39.1,34.2,39,34,39,33.8z"/>
</g>
<g id="park" class="icon">
	<path style="fill:currentColor;" d="M41.3,27.9c-1.1-0.1-2.1-0.1-3.1-0.3c-2.6-0.6-4.3-2.3-4.9-4.9c-0.6-2.7,0.1-5,2.1-6.9c0.3-0.3,0.4-0.5,0.4-1
		c-0.3-5.6,4.3-9.4,9.1-8.9c4.6,0.5,7.8,4.5,7.3,9.1c0,0.2,0.1,0.5,0.3,0.7c3,2.6,3.3,7,0.7,9.9c-1.4,1.6-3.2,2.2-5.2,2.2
		c-0.4,0-0.8,0-1.3,0c0,0.3,0,0.5,0,0.7c0,6.1,0,12.2,0,18.1c0,0.6-0.1,1.2-0.3,1.7c-0.4,1-1.6,1.5-2.7,1.4c-1.3-0.2-2.1-0.9-2.3-2
		c-0.1-0.4-0.1-0.8-0.1-1.1c0-6,0-12,0-18C41.3,28.4,41.3,28.1,41.3,27.9z"/>
	<path style="fill:currentColor;" d="M16.6,33.3c-3.5,0-7,0-10.5,0c-0.3,0-0.5,0-0.8,0c-1.5-0.2-2.4-1.1-2.4-2.6c0-1.9,0-3.8,0-5.7
		c0-1.5,0.9-2.4,2.4-2.6c0.3,0,0.5,0,0.8,0c7.1,0,14,0,21.1,0c2.2,0,3.1,1,3.1,3.2c0,1.6,0,3.2,0,4.8c0,2-1,3-3,3
		C23.7,33.3,20.1,33.3,16.6,33.3z"/>
	<path style="fill:currentColor;" d="M8.3,41.5c0,1.8,0,3.5,0,5.2c0,0.5-0.1,1.1-0.3,1.6c-0.5,1.1-1.7,1.6-3,1.3c-1.3-0.3-2.1-1.2-2.1-2.5
		c0-1.6,0-3.2,0-4.9c0-0.2,0-0.5,0-0.7c-0.2,0-0.4-0.1-0.6-0.1c-1.4-0.3-2.2-1.3-2.2-2.7c0-1.4,0.9-2.4,2.2-2.6
		c0.3,0,0.5-0.1,0.8-0.1c9,0,17.9,0,26.8,0c2.2,0,3.4,1.5,2.9,3.5c-0.2,1-0.9,1.6-1.8,1.8c-0.3,0.1-0.5,0.1-0.8,0.2
		c0,0.4,0,0.9,0,1.3c0,1.4,0,2.8,0,4.2c0,1.6-1.2,2.7-2.7,2.7c-1.6,0-2.7-1.1-2.8-2.7c0-1.6,0-3.2,0-4.8c0-0.2,0-0.4,0-0.7
		C19.3,41.5,13.9,41.5,8.3,41.5z"/>
</g>
<g id="cocktail" class="icon">
	<path style="fill:currentColor;" d="M22.7,45.8c1.8,0,3.4,0,5.1,0c0.3,0,0.6,0,0.9,0.1c1,0.2,1.6,1,1.6,2c0,0.9-0.6,1.7-1.6,2
		c-0.2,0-0.4,0.1-0.6,0.1c-4.9,0-9.9,0-14.7,0c-1.1,0-1.9-0.5-2.1-1.4c-0.4-1.4,0.5-2.7,2.1-2.7s3.2,0,4.7,0c0.2,0,0.4,0,0.7,0
		c0-0.2,0-0.4,0-0.6c0-3,0-6.1,0-9.1c0-0.4-0.1-0.6-0.4-0.9c-5.1-5.1-10-10-14.8-14.8c-0.7-0.7-1-1.4-0.7-2.3s1-1.3,2-1.4
		c0.1,0,0.2,0,0.3,0c10.4,0,20.7,0,31.1,0c1.2,0,1.9,0.5,2.3,1.4c0.3,0.7,0.2,1.3-0.2,1.9c-0.2,0.2-0.4,0.4-0.5,0.6
		c-4.9,4.9-9.7,9.7-14.5,14.5c-0.3,0.3-0.4,0.6-0.4,1C22.7,39.3,22.7,42.5,22.7,45.8z"/>
	<path style="fill:currentColor;" d="M28.3,13.9c1.2-3.7,4.9-7.6,10.2-8.2c5.7-0.7,11,2.6,13,7.6c2.1,5.3,0.5,11.1-3.6,14.3c-4.2,3.4-10,3.7-14.2,1
		c0.6-0.6,1.2-1.2,1.7-1.8c0.7-0.9,1.4-1.2,2.6-0.8c4.1,1.2,8.4-1.1,9.9-5.2s-0.4-8.6-4.3-10.4c-3.7-1.7-8.1-0.5-10.4,2.9
		c-0.3,0.4-0.5,0.5-1,0.5C30.9,13.9,29.6,13.9,28.3,13.9z"/>
</g>
<g id="utensils" class="icon">
	<path style="fill:currentColor;" d="M30.1,24.2c-0.3,0.2-0.5,0.4-0.8,0.7C23,31.3,16.6,37.7,10.1,44c-0.2,0.2-0.4,0.5-0.6,0.7
		c-1.1,1.5-0.2,3.6,1.6,4c1.1,0.3,2-0.2,2.8-0.9c6.5-6.5,13-13,19.4-19.5c0.4-0.4,0.7-0.5,1.2-0.2c3.4,1.9,7.9,1,10.2-2.2
		c2.2-3,4.2-6.2,6.3-9.2c0.1-0.1,0.1-0.3,0.2-0.4c0.2-0.6,0-1.2-0.6-1.5c-0.6-0.3-1.1-0.2-1.8,0.4c-2.5,2.5-5.1,5-7.6,7.5
		c-0.2,0.1-0.3,0.3-0.4,0.4c-0.5-0.5-1-1-1.6-1.4c0.1-0.1,0.2-0.3,0.3-0.4c2.4-2.7,4.7-5.4,7.1-8.2c0.2-0.2,0.4-0.5,0.5-0.8
		c0.3-0.8-0.2-1.6-1.1-1.6c-0.4,0-0.8,0.2-1.1,0.4c-1.9,1.6-3.7,3.1-5.5,4.7c-1.1,0.9-2.2,1.9-3.2,2.7c-0.5-0.5-1-1-1.6-1.5
		c0.2-0.2,0.4-0.3,0.6-0.5c2.5-2.5,5-5,7.4-7.5c0.6-0.7,0.7-1.3,0.3-1.9c-0.5-0.6-1.1-0.6-1.9-0.1c-2.9,1.9-5.8,3.8-8.6,5.8
		c-2.7,1.8-3.9,4.4-3.6,7.7C28.9,21.8,29.4,23,30.1,24.2z M25.4,24.8c-0.1-0.1-0.1-0.1-0.2-0.2C19.7,18.9,14,13.3,8.3,7.6
		C8.2,7.5,8,7.3,7.9,7.2C6.6,6.3,4.9,7,4.6,8.6C4.4,9.7,4.2,10.8,4,11.9C3.4,15.4,3.8,18.9,5.7,22c1.1,1.7,2.3,3.3,3.7,4.8
		c1.9,2.1,3.9,4,5.8,6c0.4,0.4,0.9,0.8,1.2,1.1C19.5,30.8,22.5,27.8,25.4,24.8z M29.4,36.2c0.1,0.1,0.1,0.2,0.2,0.2
		c3.8,3.9,7.7,7.8,11.6,11.6c0.2,0.2,0.4,0.3,0.5,0.5c1.3,0.8,3,0.5,3.7-0.7c0.7-1.1,0.5-2.5-0.5-3.5c-3.9-3.9-7.8-7.7-11.7-11.6
		c-0.1-0.1-0.2-0.1-0.2-0.2C31.9,33.7,30.7,34.9,29.4,36.2z"/>
	<path style="fill:currentColor;" d="M30.1,24.2c-0.7-1.2-1.2-2.4-1.3-3.6c-0.3-3.2,0.9-5.8,3.6-7.7c2.8-2,5.7-3.9,8.6-5.8c0.8-0.5,1.4-0.5,1.9,0.1
		s0.4,1.2-0.3,1.9c-2.5,2.5-5,5-7.4,7.5c-0.2,0.2-0.4,0.4-0.6,0.5c0.6,0.6,1.1,1,1.6,1.5c1-0.9,2.1-1.8,3.2-2.7
		c1.8-1.6,3.7-3.2,5.5-4.7c0.3-0.2,0.8-0.4,1.1-0.4c0.8,0,1.3,0.8,1.1,1.6c-0.1,0.3-0.3,0.6-0.5,0.8c-2.4,2.7-4.7,5.5-7.1,8.2
		c-0.1,0.1-0.2,0.3-0.3,0.4c0.5,0.5,1,0.9,1.6,1.4c0.1-0.1,0.2-0.2,0.4-0.4c2.5-2.5,5.1-5,7.6-7.5c0.6-0.6,1.2-0.8,1.8-0.4
		c0.6,0.3,0.8,0.9,0.6,1.5c0,0.1-0.1,0.3-0.2,0.4c-2.1,3.1-4.1,6.2-6.3,9.2c-2.3,3.2-6.7,4.1-10.2,2.2c-0.5-0.3-0.8-0.3-1.2,0.2
		c-6.5,6.5-13,13.1-19.4,19.5c-0.8,0.8-1.7,1.2-2.8,0.9c-1.8-0.4-2.6-2.5-1.6-4c0.2-0.3,0.4-0.5,0.6-0.7
		c6.4-6.4,12.9-12.8,19.2-19.2C29.6,24.6,29.8,24.4,30.1,24.2z"/>
	<path style="fill:currentColor;" d="M25.4,24.8c-3,3-6,6-9.1,9.1c-0.4-0.3-0.8-0.7-1.2-1.1c-2-2-4-3.9-5.8-6c-1.3-1.5-2.6-3.1-3.7-4.8
		C3.8,18.9,3.4,15.4,4,11.9c0.2-1.1,0.4-2.2,0.6-3.3c0.3-1.5,1.9-2.2,3.2-1.3c0.2,0,0.4,0.2,0.5,0.3c5.7,5.7,11.4,11.4,16.9,17
		C25.3,24.7,25.4,24.8,25.4,24.8z"/>
	<path style="fill:currentColor;" d="M29.4,36.2c1.2-1.2,2.4-2.4,3.7-3.7c0,0,0.1,0.1,0.2,0.2c3.9,3.9,7.8,7.7,11.7,11.6c1,1,1.2,2.4,0.5,3.5
		c-0.7,1.2-2.5,1.6-3.7,0.7c-0.2-0.1-0.4-0.3-0.5-0.5c-3.9-3.9-7.7-7.8-11.6-11.6C29.6,36.3,29.5,36.2,29.4,36.2z"/>
</g>
<g id="campground" class="icon">
	<path style="fill:currentColor;" d="M23.9,15c-1.3-1.6-2.6-3.2-3.8-4.8c-0.2-0.2-0.4-0.4-0.5-0.7c-0.9-1.4-0.7-3,0.5-4c1.2-1,2.9-0.8,4,0.5
	c1,1.3,2,2.6,3.1,3.9c0.1,0.2,0.3,0.3,0.4,0.5c0.2-0.2,0.3-0.3,0.4-0.5c1-1.2,2-2.5,3-3.7c0.8-0.9,1.7-1.5,2.9-1.2s2,1,2.2,2.2
	c0.2,0.9-0.1,1.8-0.7,2.5c-1.2,1.5-2.4,3-3.6,4.5c-0.2,0.2-0.3,0.4-0.5,0.7c1,1.2,2,2.4,2.9,3.7c6,7.5,12,14.8,17.9,22.3
	c0.9,1.1,1.4,2.4,1.3,3.8c0,0.9,0,1.9-0.2,2.8c-0.5,2.1-2.2,3.3-4.5,3.3c-6.4,0-12.7,0-19,0c-7.8,0-15.5,0-23.3,0
	c-2.3,0-4.1-1.2-4.5-3.4c-0.4-2.5-0.3-4.9,1.5-7c6.8-8.3,13.3-16.6,20-24.9C23.7,15.4,23.8,15.2,23.9,15z M27.5,31
	C24,35.7,20.5,40.3,16.9,45c7.2,0,14.2,0,21.4,0C34.7,40.4,31.1,35.7,27.5,31z"/>
</g>
<g id="theater" class="icon">
	<path style="fill:currentColor;" d="M20.6,32.6c0.3-2,0.5-3.7,0.7-5.5c0.5-3.5,1.1-7.1,1.5-10.6c0.2-1.6,0.9-2.7,2.3-3.4c1.9-1,3.9-1.5,6-1.7
		c5.8-0.4,11.5,0.4,16.9,2.5c2,0.8,3.8,1.9,5.4,3.4c1.2,1.1,1.7,2.4,1.4,4.1c-0.7,4.3-1.4,8.6-1.9,12.9c-0.5,4.4-2.5,7.9-6.1,10.5
		c-1.9,1.4-3.9,2.8-6.1,3.8c-1.7,0.8-3.6,1.2-5.4,1.2c-2,0-3.7-0.8-5.3-1.8c-2.3-1.5-4-3.6-5.7-5.8c-1.3-1.7-2.5-3.5-3.1-5.6
		C21,35.2,20.8,33.8,20.6,32.6z M37.1,41.6c1.6,0,3.1-0.4,4.6-1.2c1.9-1,3.2-2.5,4-4.4c0.1-0.2,0.1-0.6-0.1-0.8
		C45.4,35,45,35,44.7,35s-0.6,0.2-0.9,0.3c-4.3,1.6-8.5,1.2-12.5-0.9c-0.9-0.5-1.6-1.1-2.4-1.7c-0.3-0.2-0.8-0.2-1-0.1
		c-0.2,0.1-0.4,0.6-0.3,0.9C28.2,38.1,32.3,41.6,37.1,41.6z M36.1,25.3C36,23.6,34.6,22,33,21.8c-1.8-0.2-3.2,0.8-3.7,2.5
		c-0.2,1,0.1,1.3,1.1,1.1c1.5-0.4,2.9-0.1,4.3,0.6c0.3,0.1,0.7,0.3,0.9,0.2C35.8,26,35.9,25.6,36.1,25.3z M43.2,23.4
		c-1.5,0-2.8,0.9-3.2,2.4c-0.1,0.3-0.1,0.9,0.1,1.1c0.1,0.2,0.7,0.2,1,0.1c1.2-0.3,2.3-0.2,3.5,0.3c0.4,0.2,0.7,0.4,1.1,0.6
		c0.5,0.2,0.9,0,0.9-0.5C46.8,25.2,45.3,23.4,43.2,23.4z"/>
	<path style="fill:currentColor;" d="M22.3,43.8c-1.7,0.6-3.3,0.5-4.9,0.2c-1.9-0.3-3.6-1.1-5.2-2c-2-1.2-4-2.6-5.7-4.2c-2.6-2.4-3.9-5.4-4.4-8.8
		c-0.6-4.6-1.3-9.1-2-13.6c-0.2-1.1,0.1-2,0.8-2.8C2.3,11,4.1,9.9,5.9,9c2.6-1.3,5.5-1.9,8.3-2.4c2.7-0.5,5.5-0.8,8.2-0.7
		c2.5,0.1,5,0.7,7.3,1.7c0.5,0.2,1,0.6,1.6,0.9c-1.5,0.3-3,0.6-4.4,1c-1.9,0.6-3.8,1.4-5.2,2.9c-1,1.1-1.4,2.5-1.6,4
		c-0.5,3.4-1,6.8-1.5,10.1c0,0.3-0.2,0.5-0.5,0.5c-3.1,0.5-5.3,2.5-6,5.5c-0.1,0.3,0,0.7,0.2,0.9c0.3,0.3,0.7,0.3,1.1,0
		c1-0.6,2-1.2,3-1.7c0.5-0.2,1-0.4,1.7-0.6c-0.2,2.4,0.1,4.6,0.9,6.8C19.6,40,20.9,41.9,22.3,43.8z M11.9,23.5c0.6,0,1.4-0.2,2-0.8
		c0.8-0.7,1.2-1.6,1.3-2.7c0-0.9-0.5-1.3-1.2-0.8c-1.4,0.9-3,1.2-4.6,0.7c-0.7-0.2-1,0.1-0.9,0.8C8.8,22.2,10,23.4,11.9,23.5z"/>
</g>
<g id="saxophone" class="icon">
	<path style="fill:currentColor;" d="M37.7,12.5c0.9-1.5,1.7-2.9,2.5-4.4s2.1-2.5,3.8-2.9c1-0.3,2-0.6,3.1-0.7c0.7-0.1,1.5,0,2.2,0.2
	c1.1,0.4,2.1,0.9,3.2,1.4c0.6,0.3,0.9,0.8,0.8,1.4c0,0.6-0.4,1-1.1,1.2c-1.7,0.5-3.4,0.9-5,1.4C46.1,10.4,45.4,11,45,12
	c-4.5,10.2-8.9,20.4-13.2,30.7c-1.5,3.5-4,6.1-7.5,7.5c-6.9,2.8-14.5,0.1-17.8-6.9c-1.2-2.5-1.5-5.1-1.5-7.8c0-2.2-0.1-4.4-0.2-6.5
	c0-0.1,0-0.3-0.1-0.4c-0.2,0-0.4,0.1-0.6,0.1c-1.1,0.1-2-0.5-2.2-1.5c-0.3-1,0.2-2,1.2-2.4c0.1-0.1,0.3-0.1,0.4-0.1
	c6.5-1.7,13-3.5,19.3-5.2c0.8-0.2,1.6-0.2,2.2,0.5c0.9,1,0.7,2.5-0.4,3.2c-0.2,0.1-0.3,0.2-0.5,0.2c-1.2,0.1-1.6,0.9-1.9,1.9
	c-0.9,3.6-1.9,7.1-2.9,10.6c-0.2,0.7-0.2,1.4,0.2,2.1c0.7,1.3,2.6,1.4,3.4,0.1c2.3-3.9,4.5-7.8,6.8-11.7c0,0,0-0.1,0.1-0.2
	c-0.8-0.5-1.7-0.9-1.8-1.9c0-0.4,0-1,0.3-1.4c0.7-1.2,1.5-1.2,3.5-0.3c0.3-0.5,0.6-0.9,0.9-1.5c-0.8-0.5-1.7-0.9-1.8-2
	c0-0.4,0.1-0.9,0.3-1.3c0.7-1.2,1.6-1.2,3.5-0.2c0.3-0.5,0.5-1,0.8-1.5c-1.7-1.3-2.1-2.2-1.5-3.3C34.7,11.7,35.5,11.6,37.7,12.5z
	 M16,29.8c-0.3-1.1-1.4-1.8-2.5-1.5c-1.1,0.3-1.8,1.5-1.5,2.6c0.3,1.1,1.4,1.7,2.5,1.5C15.6,32,16.3,30.9,16,29.8z M15.4,38.4
	c-0.3-1.1-1.5-1.8-2.6-1.4c-1.1,0.3-1.7,1.5-1.4,2.5c0.3,1.1,1.5,1.8,2.6,1.5S15.7,39.4,15.4,38.4z"/>
</g>
<g id="hotel" class="icon">
	<path style="fill:currentColor;" d="M7.5,10.6c-0.2,0-0.3-0.1-0.5-0.1c-1.5-0.3-2.3-1.4-2.3-2.9s0.9-2.5,2.4-2.7c0.3,0,0.5,0,0.8,0
	c13.1,0,26.3,0,39.3,0c1.6,0,2.6,0.6,3,1.8c0.6,1.8-0.3,3.5-2.2,3.8c-0.1,0-0.3,0.1-0.4,0.1c0,11.5,0,22.9,0,34.4
	c0.2,0.1,0.5,0.1,0.7,0.2c1.2,0.3,2,1.3,2.1,2.6c0,1.4-0.6,2.5-1.9,2.8c-0.3,0.1-0.7,0.2-1.1,0.2c-5.1,0-10.2,0-15.2,0
	c-0.1,0-0.2,0-0.4,0c0-1.9,0-3.8,0-5.7c-2.9,0-5.8,0-8.7,0c0,1.9,0,3.8,0,5.7c-0.2,0-0.4,0-0.6,0c-5,0-10,0-14.9,0
	c-1.7,0-2.8-0.9-3-2.3c-0.3-1.8,0.6-3.1,2.5-3.4c0.1,0,0.2,0,0.3-0.1C7.5,33.5,7.5,22,7.5,10.6z M27.6,39.3L27.6,39.3
	c2.2,0,4.4,0,6.6,0c1.3,0,2.1-1.1,1.8-2.3c-1-3.7-4.8-6.6-8.6-6.4c-3.7,0.2-6.7,2.5-8,6c-0.6,1.7,0.5,2.7,1.9,2.7
	C23.4,39.2,25.5,39.3,27.6,39.3z M16.1,19.2c0.5,0,1,0,1.4,0h0.1c0.8-0.1,1.3-0.5,1.3-1.3c0.1-1.1,0.1-2.2,0-3.2
	c0-0.8-0.6-1.3-1.4-1.3c-1,0-2,0-2.9,0c-0.8,0-1.3,0.4-1.4,1.2c-0.1,1.1-0.1,2.2,0,3.3c0.1,0.8,0.6,1.2,1.4,1.2
	C15.2,19.2,15.7,19.2,16.1,19.2z M27.6,13.4c-0.5,0-1,0-1.4,0h-0.1c-0.7,0-1.3,0.4-1.3,1.2c-0.1,1.1-0.1,2.3,0,3.5
	c0,0.7,0.6,1.2,1.4,1.2c1,0,2,0,3,0c0.8,0,1.3-0.5,1.3-1.3c0.1-1.1,0.1-2.2,0-3.2c0-0.8-0.6-1.3-1.4-1.3
	C28.5,13.4,28.1,13.4,27.6,13.4z M39.1,19.2L39.1,19.2c0.5,0,0.9,0,1.4,0h0.1c0.8,0,1.3-0.5,1.4-1.3c0.1-1.1,0.1-2.2,0-3.2
	c0-0.8-0.6-1.3-1.3-1.3c-1,0-2,0-3.1,0c-0.7,0-1.3,0.4-1.3,1.2c-0.1,1.1-0.1,2.3,0,3.5c0,0.7,0.6,1.1,1.3,1.2
	C38.1,19.2,38.6,19.2,39.1,19.2z M16.2,27.8c0.5,0,0.9,0,1.4,0h0.1c0.8,0,1.3-0.5,1.4-1.2c0.1-1.1,0.1-2.2,0-3.3
	c0-0.8-0.6-1.2-1.3-1.3c-1,0-2,0-3,0c-0.7,0-1.3,0.4-1.3,1.2c-0.1,1.1-0.1,2.3,0,3.4c0.1,0.8,0.6,1.2,1.4,1.2
	C15.2,27.8,15.7,27.8,16.2,27.8z M27.5,27.8c0.5,0,1,0,1.6,0c0.8,0,1.3-0.5,1.3-1.2c0.1-1.1,0.1-2.2,0-3.3c0-0.8-0.6-1.2-1.4-1.2
	c-1,0-2,0-3,0c-0.7,0-1.3,0.4-1.3,1.1c-0.1,1.1-0.1,2.3,0,3.5c0,0.7,0.6,1.1,1.3,1.2C26.6,27.8,27.1,27.8,27.5,27.8z M39.1,22
	L39.1,22c-0.5,0-1,0-1.5,0c-0.8,0-1.3,0.4-1.4,1.2c-0.1,1.1-0.1,2.3,0,3.5c0,0.7,0.6,1.1,1.3,1.2c1,0,2,0,3.1,0
	c0.8,0,1.3-0.5,1.3-1.2c0.1-1.1,0.1-2.2,0-3.3c0-0.7-0.6-1.2-1.3-1.2C40.1,22,39.6,22,39.1,22z"/>
</g>
</svg>
