<?xml version="1.0" encoding="utf-8"?>
<!-- Generator: Adobe Illustrator 27.2.0, SVG Export Plug-In . SVG Version: 6.00 Build 0)  -->
<svg version="1.1" id="sprites" xmlns="http://www.w3.org/2000/svg" xmlns:xlink="http://www.w3.org/1999/xlink" x="0px" y="0px"
	 width="55px" height="46.9px" viewBox="0 0 55 46.9" style="enable-background:new 0 0 55 46.9;" xml:space="preserve">

<style>
<![CDATA[
  .icon { display: none; }
  .icon:target { display: inline; }
]]>
</style>
	 
<g class="icon" id="rollercoaster">
	<path style="fill:currentColor;" d="M42,34.5c-1.4-0.2-2.8-0.3-4.2-0.5c0,0.2,0,0.4,0,0.6c0,1.9,0,3.9,0,5.8c0,0.8-0.2,1.6-1,2
		c-1.5,0.8-3.1-0.1-3.1-1.9c0-2,0-4,0-6c0-0.8,0.2-1.8-0.1-2.5c-0.3-0.7-1.1-1.2-1.5-1.8c-0.8-1.1-1.6-2.2-2.5-3.5
		c0,0.3,0,0.5,0,0.7c0,4.3,0,8.6,0,13c0,0.9-0.2,1.7-1.1,2.1c-1.4,0.7-2.8-0.1-3-1.7c0-0.2,0-0.4,0-0.6c0-6.3,0-12.6,0-18.9
		c0-0.3-0.1-0.7-0.3-1c-1.1-1.6-2.3-3.3-3.4-4.9c-0.1-0.2-0.2-0.3-0.4-0.6c0,0.4,0,0.6,0,0.8c0,8.2,0,16.4,0,24.6
		c0,0.8-0.2,1.6-0.9,2.1c-1.4,0.9-3,0-3.2-1.7c0-0.2,0-0.4,0-0.6c0-9.6,0-19.3,0-28.9c0-0.5-0.1-0.7-0.6-0.9
		c-1.1-0.4-2.3-0.7-3.6-0.6c0,0.3,0,0.5,0,0.7c0,9.9,0,19.9,0,29.8c0,0.8-0.2,1.6-0.9,2.1c-1.4,0.9-3,0-3.1-1.6c0-0.2,0-0.4,0-0.6
		c0-9.4,0-18.8,0-28.1c0-0.2,0-0.4,0-0.8c-1.2,0.8-2,1.9-2.6,3.1c-0.6,1.2-0.8,2.5-0.8,3.9c0,7.2,0,14.3,0,21.5
		c0,0.5-0.1,1.1-0.3,1.6c-0.5,1.1-1.7,1.7-2.9,1.4C1,42.4,0.2,41.5,0,40.3c0-0.2,0-0.5,0-0.7C0,32.4,0,25.2,0,18
		c0.1-5.2,2.2-9.3,6.8-12c4.6-2.7,10.7-2.3,15,1c1.6,1.2,2.8,2.8,3.9,4.4c3.3,4.8,6.6,9.6,9.9,14.4c1.5,2.1,3.5,3.1,6.1,3.2
		c1.9,0,3.7-0.3,5.3-1.5c3.9-3,3.2-9.4-1.3-11.5c-0.1,0-0.2-0.1-0.4-0.1c0,0.3,0,0.5,0,0.7c0,2.4,0,4.9,0,7.3c0,0.8-0.2,1.6-1,2
		c-1.5,0.9-3.1-0.1-3.1-1.9c0-2.7,0-5.3,0-8c0-0.2,0-0.4,0-0.8c-1,0.3-1.9,0.5-2.8,0.8c-1.4,0.5-1.4,0.6-1.4,2c0,1.6,0,3.2,0,4.7
		c0,0-0.1,0-0.1,0c-2.1-3-4.1-5.9-6.2-9c0.4-0.2,0.8-0.4,1.1-0.6c1.6-0.8,3.1-1.8,4.8-2.4c4.3-1.7,8.5-1.6,12.5,0.8
		c3.1,1.9,4.9,4.8,5.5,8.4c0.2,1.1,0.2,2.2,0.2,3.2c0,5.5,0,11,0,16.4c0,2.1-1.6,3.3-3.5,2.8c-1.2-0.3-1.9-1.3-1.9-2.7
		c0-2.3,0-4.5,0-6.8c0-0.2,0-0.4,0-0.7c-0.8,0.4-1.5,0.8-2.3,1.1c-1.2,0.5-1.2,0.5-1.2,1.8c0,1.7,0,3.4,0,5c0,0.8-0.2,1.6-1,2
		c-1.5,0.8-3.1-0.1-3.1-1.9c0-1.8,0-3.6,0-5.3C42,34.9,42,34.7,42,34.5z"/>
</g>
<g class="icon" id="chair">
	<path style="fill:currentColor;" d="M38.5,23.4c-7.4,0-14.7,0-22.1,0c0-0.2,0-0.4,0-0.6c0-5.2,0-10.4,0-15.5c0-3.5,2.4-5.9,5.9-5.9
		c3.5,0,6.9,0,10.4,0c3.5,0,5.9,2.4,5.9,5.9c0,5.2,0,10.4,0,15.6C38.5,23,38.5,23.2,38.5,23.4z"/>
	<path style="fill:currentColor;" d="M24.7,40c0-1.9,0-3.7,0-5.6c-0.2,0-0.5,0-0.7,0c-3.4,0-6.8,0-10.1,0c-1.6,0-2.7-0.8-2.9-2.3
		c-0.1-0.4-0.1-1,0.1-1.3c0.5-1.1,1-2.2,1.6-3.3c0.5-0.9,1.5-1.3,2.5-1.3c8.2,0,16.3,0,24.5,0c1.3,0,2.2,0.6,2.8,1.7
		c0.4,0.7,0.8,1.5,1.1,2.3c1.1,2.2-0.2,4.2-2.6,4.3c-3.3,0-6.7,0-10,0c-0.2,0-0.5,0-0.7,0c0,1.8,0,3.7,0,5.5c0.1,0,0.3,0,0.5,0
		c0.8,0,1.5,0,2.3,0c1.6,0.1,2.7,1.2,2.7,2.8c0,1.5-1.1,2.7-2.7,2.7c-3.7,0-7.4,0-11.2,0c-1.6,0-2.7-1.2-2.7-2.8
		c0-1.6,1.1-2.7,2.7-2.7C22.8,40,23.8,40,24.7,40z"/>
	<path style="fill:currentColor;" d="M13.6,18c0,1,0,2,0,2.9c-0.1,1.3-0.9,2.2-2.1,2.4c-1.3,0.3-2.5-0.3-3-1.4c-0.2-0.4-0.3-0.8-0.3-1.3
		c0-1.9,0-3.8,0-5.6c0-1.4,0.8-2.4,2.1-2.6c1.3-0.3,2.5,0.3,3,1.4c0.2,0.4,0.3,0.9,0.3,1.4C13.7,16.2,13.7,17.1,13.6,18
		C13.7,18,13.7,18,13.6,18z"/>
	<path style="fill:currentColor;" d="M46.8,17.9c0,1,0,2,0,3c-0.1,1.3-0.9,2.2-2.1,2.4c-1.3,0.3-2.5-0.3-3-1.4c-0.2-0.4-0.3-0.8-0.3-1.3
		c0-1.9,0-3.8,0-5.6c0-1.4,0.9-2.4,2.1-2.6c1.3-0.3,2.5,0.3,3,1.4c0.2,0.4,0.3,0.9,0.3,1.4C46.9,16.1,46.8,17,46.8,17.9
		C46.8,17.9,46.8,17.9,46.8,17.9z"/>
</g>
<g class="icon" id="beach">
	<path style="fill:currentColor;" d="M27.4,22.8c1.7,0.6,3.3,1.2,5,1.8c-1.8,5-3.6,9.9-5.4,14.8c0.3,0,0.5,0,0.8,0c7,0,14,0,21.1,0
		c1.6,0,2.5,0.7,2.9,1.9c0.4,1.7-0.5,3.2-2.3,3.4c-0.3,0-0.6,0-0.8,0c-14,0-28.1,0-42.1,0c-0.3,0-0.6,0-1-0.1
		c-1.4-0.2-2.2-1.3-2.2-2.7c0-1.4,0.9-2.4,2.2-2.6c0.3,0,0.6-0.1,0.9-0.1c4.7,0,9.4,0,14.2,0c0.6,0,0.8-0.2,1-0.7
		c1.8-5.1,3.7-10.2,5.6-15.3C27.2,23.2,27.3,23,27.4,22.8z"/>
	<path style="fill:currentColor;" d="M39.7,24.4C33.9,22.2,28,20.1,22,17.9c0.8-1.8,1.6-3.7,2.5-5.4c1.3-2.6,3.1-4.9,5-7.1
		c2-2.2,5.2-3,8-1.9c2.9,1.2,4.4,3.4,4.6,6.5c0.3,4.9-0.6,9.6-2.3,14.2C39.8,24.3,39.8,24.3,39.7,24.4z"/>
	<path style="fill:currentColor;" d="M29.1,2.1c-4.5,4.3-7.6,9.2-9.5,14.9c-1.5-0.6-3-1.1-4.6-1.7c-0.5-0.2-1.1-0.4-1.6-0.6
		c-1.5-0.7-2-2.3-1-3.7c3.3-4.5,7.6-7.3,13.1-8.5C26.6,2.3,27.8,2.2,29.1,2.1z"/>
	<path style="fill:currentColor;" d="M44.7,7.9c0.5,0.6,1,1,1.4,1.5c2.8,3.3,4.5,7,5,11.3c0.2,1.5,0.1,3.1,0.1,4.6c0,1.6-1.5,2.5-2.8,2.1
		c-2.1-0.6-4.1-1.4-6.1-2.1C44.5,19.7,45.3,14,44.7,7.9z"/>
</g>
<g class="icon" id="bowling">
	<path style="fill:currentColor;" d="M20.4,9.1C31.2,9.3,39,17.7,38.9,27.9c-0.1,10.6-8.5,18.6-18.7,18.5C9.6,46.3,1.6,38,1.6,27.7
		C1.7,17,10.1,9.1,20.4,9.1z M12.7,22.7c1.4,0,2.5-1.1,2.5-2.5c0-1.4-1.1-2.5-2.5-2.5c-1.4,0-2.5,1.1-2.5,2.5
		C10.2,21.6,11.3,22.7,12.7,22.7z M19.2,18.4c1.4,0,2.5-1.1,2.5-2.5c0-1.4-1.1-2.5-2.5-2.5c-1.4,0-2.5,1.1-2.5,2.5
		C16.7,17.3,17.7,18.4,19.2,18.4z M19.2,26.3c1.4,0,2.5-1.1,2.5-2.6c0-1.4-1.1-2.5-2.6-2.5c-1.4,0-2.5,1.1-2.5,2.5
		C16.7,25.2,17.8,26.3,19.2,26.3z"/>
	<path style="fill:currentColor;" d="M41.1,17.7c2.4,0,4.8,0,7.2,0c0.8,2.3,1.7,4.6,2.5,7c0.7,1.9,1.5,3.8,2,5.7c0.9,3.2,0.6,6.4-0.6,9.5
		c-0.6,1.5-1.2,2.9-1.8,4.4c-0.6,1.5-1.6,2.2-3.2,2.2c-1.7,0-3.4,0-5,0c-1.6,0-2.6-0.7-3.2-2.2c-0.4-1-0.8-2.1-1.2-3.1
		c-0.1-0.3-0.1-0.6,0.1-0.9c3.2-4.4,4.4-9.4,3.8-14.8c-0.2-1.6-0.7-3.2-1.1-4.8c-0.1-0.5-0.2-1,0-1.5C40.8,18.7,40.9,18.2,41.1,17.7
		z"/>
	<path style="fill:currentColor;" d="M48.4,14.8c-2.4,0-4.8,0-7.3,0c-0.5-1.7-0.9-3.3-1.4-5c-0.3-1.1-0.6-2.1-0.7-3.2
		c-0.2-3.2,2.2-6.1,5.7-6.1c3.3,0,6,3,5.7,6.3c-0.1,0.9-0.3,1.7-0.5,2.6C49.4,11.1,48.9,12.9,48.4,14.8z"/>
</g>
<g class="icon" id="farm">
	<path style="fill:currentColor;" d="M28.9,46.4c-1.8,0-3.5,0-5.2,0c-1.5,0-3.1,0-4.6,0c-2,0-3.1-1.1-3.1-3.1c0-6.1,0-12.3,0-18.4
		c0-0.5,0.1-1.1,0.3-1.6c1.4-3.4,2.7-6.7,4.1-10.1c0.3-0.8,0.9-1.4,1.7-1.8c3.7-1.7,7.4-3.5,11-5.2c1-0.5,1.9-0.5,2.9,0
		c3.7,1.8,7.5,3.5,11.2,5.3c0.7,0.3,1.3,0.9,1.6,1.7c1.4,3.4,2.8,6.9,4.2,10.3c0.2,0.5,0.3,1,0.3,1.5c0,6.1,0,12.3,0,18.4
		c0,2-1.1,3.1-3.1,3.1c-3.1,0-6.2,0-9.4,0c-0.1,0-0.3,0-0.5,0c0-0.2,0-0.5,0-0.7c0-1.6,0-3.2,0-4.8c0-2.7-1.9-4.6-4.6-4.6
		c-0.8,0-1.7,0-2.5,0c-2.6,0-4.4,1.9-4.5,4.5C28.9,42.7,28.9,44.5,28.9,46.4z M34.7,29.2c0.7,0,1.4,0,2.1,0c1.3,0,2.2-0.9,2.2-2.1
		c0-1.5,0-2.9,0-4.4c0-1.3-0.9-2.1-2.1-2.1c-1.4,0-2.9,0-4.3,0c-1.3,0-2.2,0.9-2.2,2.2c0,1.4,0,2.8,0,4.2c0,1.3,0.9,2.2,2.2,2.2
		C33.3,29.2,34,29.2,34.7,29.2z"/>
	<path style="fill:currentColor;" d="M1.6,14.8c5.1,0,10,0,15,0c-0.3,0.7-0.6,1.4-0.9,2.1c-0.7,1.8-1.5,3.5-2.1,5.3
		c-0.3,0.9-0.5,1.9-0.5,2.8c0,5.9,0,11.7,0,17.6c0,1.3,0,2.6,0.8,3.8c-0.3,0-0.5,0-0.6,0c-2.3,0-4.6,0-6.9,0c-2.9,0-4.7-1.8-4.7-4.7
		c0-8.8,0-17.5,0-26.3C1.6,15.3,1.6,15.1,1.6,14.8z"/>
	<path style="fill:currentColor;" d="M1.6,11.9C1.6,10,1.5,8.2,2,6.4c1.2-3.9,5.1-6.3,9.1-5.9c4,0.4,8,3.7,7.6,9.6c0,0.6-0.6,1.2-0.9,1.7
		c0,0.1-0.2,0.1-0.4,0.1c-5.2,0-10.4,0-15.6,0C1.8,11.9,1.8,11.9,1.6,11.9z"/>
</g>
<g class="icon" id="gas-pump">
	<path style="fill:currentColor;" d="M33.2,23.3c1.3,0.3,2.5,0.4,3.6,0.8c3,1.1,5,4.1,5,7.3c0,0.9,0,1.9,0,2.8c0.1,1.8,1.8,2.7,3.3,1.9
		c0.8-0.5,1.1-1.3,1.1-2.1c0-4,0-8,0-12c0-1-0.1-1.6-1.2-2.1c-2.1-1-3.1-2.8-3.1-5.1c0-1.7,0-3.4,0-5.2c0-0.3-0.2-0.6-0.3-0.8
		c-0.8-0.8-1.6-1.6-2.4-2.5C38,5,38.3,3.4,39.8,2.9c0.8-0.3,1.6,0,2.1,0.5c2.4,2.3,4.7,4.7,7.1,7.1c1.1,1.1,1.5,2.5,1.5,4.1
		c0,6.5,0,12.9,0,19.4c0,0.6-0.1,1.3-0.2,1.9c-0.7,2.9-3.2,4.9-6.4,4.8c-3.3-0.1-5.8-2.4-6.2-5.5c-0.1-1.2-0.2-2.4-0.1-3.5
		c0.1-2.2-1.8-4.3-4.3-3.9c0,4.3,0,8.6,0,12.9c1.7,0.3,2.5,1,2.8,2.4c0.3,1.7-0.8,3.3-2.6,3.4c-0.2,0-0.4,0-0.5,0
		c-8.4,0-16.8,0-25.2,0c-0.2,0-0.5,0-0.7,0c-1.5-0.2-2.5-1.3-2.5-2.8c0-1.5,0.9-2.6,2.4-2.9c0.2,0,0.3-0.1,0.5-0.1
		c0-0.3,0-0.5,0-0.8c0-11.1,0-22.3,0-33.4c0-2.7,1.3-4.7,3.7-5.7c0.7-0.3,1.5-0.4,2.3-0.4c4.6,0,9.2,0,13.8,0c3.5,0,6,2.5,6,6
		c0,5.4,0,10.8,0,16.2C33.2,22.9,33.2,23.1,33.2,23.3z M20.3,17.7c1.8,0,3.7,0,5.5,0c1.2,0,1.7-0.5,1.7-1.7c0-2.7,0-5.4,0-8.1
		c0-1.2-0.5-1.7-1.7-1.7c-3.7,0-7.3,0-11,0c-1.2,0-1.7,0.5-1.7,1.7c0,2.7,0,5.4,0,8.1c0,1.2,0.5,1.7,1.7,1.7
		C16.6,17.7,18.5,17.7,20.3,17.7z"/>
</g>
<g class="icon" id="service-bell">
	<path style="fill:currentColor;" d="M48.2,33.7c-13.8,0-27.5,0-41.3,0c-0.3-8.2,6-19,18.4-20.6c0-1,0-2,0-3c-1.2,0-2.4,0-3.6,0
		c0-1.5,0-2.9,0-4.4c3.9,0,7.8,0,11.7,0c0,1.4,0,2.8,0,4.3c-1.2,0-2.4,0-3.6,0c0,1.1,0,2.1,0,3.1C40.9,14.2,48.4,24.3,48.2,33.7z"/>
	<path style="fill:currentColor;" d="M3.9,41.1c0-1.4,0-2.9,0-4.3c15.7,0,31.5,0,47.2,0c0,1.4,0,2.8,0,4.3C35.4,41.1,19.7,41.1,3.9,41.1z
		"/>
</g>
<g class="icon" id="swimming">
	<path style="fill:currentColor;" d="M29.4,16.5c1.9-1,3.9-1.6,5.9-1.6c2.1,0,4.2,0,6.2,0c1.5,0,2.5-0.8,2.9-2c0.5-2-0.7-3.7-2.8-3.7
		c-1.9,0-3.7,0-5.6,0c-2.5,0.1-4.9,0.4-7.3,1.3c-6.4,2.6-10.4,7.3-12.1,14c-0.3,1.3-0.4,2.7-0.7,4.1c1.5,0.6,3,0.7,4.5,0.4
		c1.5-0.3,2.8-1,4.1-1.8c0.8-0.5,1.7-0.8,2.7-0.8c1.4-0.1,2.6,0.5,3.8,1.2c2.3,1.5,4.8,2,7.5,1.2c1.1-0.4,2.1-1,3.1-1.6
		C37.6,23.5,33.6,20.1,29.4,16.5z M1.9,34.8c0,1.8,1.7,3.2,3.5,2.8c1.6-0.4,3.2-0.9,4.7-1.9c0.4-0.3,0.8-0.3,1.2,0
		c2.5,1.3,5.1,2,7.9,2c2.8-0.1,5.4-0.7,7.8-2.1c0.4-0.2,0.8-0.2,1.2,0c2.7,1.5,5.6,2.2,8.6,2.1c2.6-0.1,5.1-0.8,7.4-2
		c0.3-0.2,0.6-0.2,0.9,0.1c1.5,1,3.2,1.6,4.9,2c1.2,0.3,2.6-0.5,3-1.7c0.5-1.3,0.1-2.7-1-3.4c-0.3-0.2-0.6-0.3-0.9-0.4
		c-1.6-0.4-3.1-1.2-4.4-2.2c-1.3-1-2.3-1-3.8-0.1c-0.2,0.1-0.5,0.3-0.7,0.4c-4,2.3-8.1,2.5-12,0c-1.8-1.1-3.2-1.2-5,0
		c-2.1,1.4-4.6,2-7.2,1.7c-2-0.2-3.9-1-5.6-2.1c-1.2-0.8-2.4-0.9-3.5-0.1c-1.5,1.1-3.2,2-5,2.5C2.6,32.6,1.8,33.7,1.9,34.8z
		 M4.7,14.9c0,3.1,2.6,5.7,5.7,5.7c3,0,5.6-2.6,5.7-5.6c0-3.1-2.6-5.7-5.7-5.7C7.2,9.3,4.8,11.7,4.7,14.9z"/>
	<path style="fill:currentColor;" d="M29.4,16.5c4.1,3.6,8.2,7,12.3,10.6c-1,0.7-2,1.3-3.1,1.6c-2.7,0.9-5.2,0.3-7.5-1.2
		c-1.2-0.8-2.4-1.3-3.8-1.2c-1,0-1.9,0.3-2.7,0.8c-1.3,0.8-2.6,1.5-4.1,1.8c-1.5,0.3-2.9,0.2-4.5-0.4c0.2-1.3,0.3-2.7,0.7-4.1
		c1.7-6.7,5.7-11.4,12.1-14c2.3-0.9,4.8-1.3,7.3-1.3c1.9,0,3.7,0,5.6,0c2.1,0,3.4,1.7,2.8,3.7c-0.3,1.2-1.4,2-2.9,2
		c-2.1,0-4.2,0-6.2,0C33.3,14.9,31.4,15.5,29.4,16.5z"/>
	<path style="fill:currentColor;" d="M1.9,34.8c0-1.1,0.7-2.2,1.9-2.6c1.8-0.5,3.5-1.3,5-2.5c1.1-0.9,2.4-0.7,3.5,0.1
		c1.7,1.1,3.6,1.8,5.6,2.1c2.6,0.3,5.1-0.3,7.2-1.7c1.8-1.2,3.2-1.1,5,0c3.9,2.5,8,2.3,12,0c0.2-0.1,0.5-0.3,0.7-0.4
		c1.4-0.9,2.4-0.9,3.8,0.1c1.3,1,2.8,1.8,4.4,2.2c0.3,0.1,0.6,0.2,0.9,0.4c1.1,0.7,1.5,2.1,1,3.4c-0.5,1.2-1.8,2-3,1.7
		c-1.7-0.4-3.4-1-4.9-2c-0.3-0.2-0.6-0.2-0.9-0.1c-2.3,1.2-4.8,2-7.4,2c-3,0.1-5.9-0.6-8.6-2.1c-0.4-0.2-0.8-0.2-1.2,0
		c-2.4,1.4-5.1,2-7.8,2.1c-2.8,0.1-5.4-0.7-7.9-2c-0.5-0.2-0.8-0.3-1.2,0c-1.4,0.9-3,1.5-4.7,1.9C3.5,38,1.9,36.7,1.9,34.8z"/>
	<path style="fill:currentColor;" d="M4.7,14.9c0.1-3.2,2.5-5.6,5.7-5.7c3.1,0,5.7,2.7,5.7,5.7c0,3.1-2.6,5.6-5.7,5.6
		C7.3,20.6,4.7,17.9,4.7,14.9z"/>
</g>
<g class="icon" id="book">
	<path style="fill:currentColor;" d="M44.8,40.7c0.2,0,0.3,0.1,0.5,0.1c1.5,0.3,2.4,1.4,2.4,2.9c0,1.5-0.9,2.5-2.4,2.7
		c-0.3,0-0.5,0-0.8,0c-9.4,0-18.8,0-28.2,0c-3.9,0-7.2-2.2-8.3-5.7c-0.3-0.9-0.5-2-0.5-3c0-9.5,0-19,0-28.5c0-4.3,2.8-7.7,6.9-8.5
		c0.7-0.1,1.3-0.2,2-0.2c9.4,0,18.7,0,28.1,0c2.2,0,3.2,1.1,3.2,3.2c0,9.3,0,18.6,0,27.9c0,2.2-0.7,3-2.8,3.4
		C44.8,36.9,44.8,38.8,44.8,40.7z M39,34.9c-0.3,0-0.5,0-0.8,0c-7.2,0-14.5,0-21.7,0c-0.3,0-0.5,0-0.8,0c-1,0.1-1.7,0.5-2.2,1.4
		c-1.2,2.1,0.2,4.4,2.7,4.4c7.4,0,14.9,0,22.3,0c0.2,0,0.3,0,0.5,0C39,38.8,39,36.9,39,34.9z M28.9,11.9c-2.9,0-5.7,0-8.6,0
		c-0.9,0-1.5,0.6-1.5,1.5c0,0.9,0.6,1.4,1.5,1.4c1,0,1.9,0,2.9,0c4.7,0,9.4,0,14.1,0c0.8,0,1.4-0.3,1.6-0.9c0.4-1.1-0.3-2-1.5-2
		C34.6,11.9,31.8,11.9,28.9,11.9z M28.8,20.6c2.9,0,5.7,0,8.6,0c0.8,0,1.3-0.3,1.5-0.9c0.4-1.1-0.3-2-1.5-2c-3,0-6,0-8.9,0
		c-2.7,0-5.4,0-8,0c-0.7,0-1.2,0.2-1.5,0.8c-0.4,1,0.2,2.1,1.4,2.1C23.2,20.6,26,20.6,28.8,20.6z"/>
</g>
<g class="icon" id="picnic-table">
	<path style="fill:currentColor;" d="M37.9,11.4c0.3,0.7,0.6,1.4,0.8,2.1c0.9,2.2,1.8,4.3,2.6,6.5c0.1,0.4,0.3,0.5,0.7,0.5
		c2.1,0,4.2,0,6.3,0c2.2,0,3.5,1.7,3,3.8c-0.3,1-0.9,1.7-1.9,1.9c-0.5,0.1-1,0.2-1.5,0.2c-13.7,0-27.4,0-41.1,0c-0.2,0-0.4,0-0.6,0
		c-1.8-0.1-3-1.3-3-3c0-1.7,1.2-2.9,3-3c1.8,0,3.6,0,5.3,0c1.7,0,1.7,0,2.3-1.5c0.9-2.3,1.9-4.6,2.8-6.9c0.1-0.2,0.1-0.4,0.2-0.6
		c-1.5,0-2.9,0-4.3,0c-0.6,0-1.2-0.1-1.7-0.3C10,10.6,9.4,9.4,9.5,8.1c0.1-1.3,0.9-2.3,2.1-2.6c0.3-0.1,0.7-0.1,1.1-0.1
		c9.9,0,19.8,0,29.7,0c2.3,0,3.6,1.7,3.1,3.9c-0.3,1.3-1.4,2.1-2.9,2.1c-1.4,0-2.7,0-4.1,0C38.3,11.4,38.2,11.4,37.9,11.4z
		 M35.1,20.4c0-0.2-0.1-0.3-0.1-0.4c-1.1-2.7-2.2-5.5-3.3-8.2c-0.2-0.4-0.4-0.4-0.7-0.4c-2.3,0-4.6,0-6.8,0c-0.5,0-0.6,0.2-0.8,0.6
		c-1.1,2.6-2.1,5.3-3.2,7.9C20,20,20,20.2,19.9,20.4C25,20.4,30,20.4,35.1,20.4z"/>
	<path style="fill:currentColor;" d="M16.2,29.5c-0.1,0.2-0.1,0.4-0.2,0.5c-1.2,3.1-2.5,6.2-3.7,9.4c-0.6,1.5-1.9,2.3-3.3,2.1
		c-1.8-0.2-3-2.2-2.3-4.1c1-2.5,2-5,3-7.5c0.1-0.1,0.3-0.3,0.4-0.3C12.1,29.5,14.1,29.5,16.2,29.5z"/>
	<path style="fill:currentColor;" d="M38.8,29.5c2.1,0,4.1,0,6.2,0c0.1,0,0.3,0.2,0.4,0.3c1,2.5,2.1,5,3,7.5c0.6,1.6-0.2,3.4-1.7,4
		c-1.5,0.6-3.2-0.2-3.9-1.8c-0.7-1.6-1.3-3.2-1.9-4.8c-0.6-1.5-1.2-3-1.8-4.5C38.9,29.9,38.8,29.7,38.8,29.5z"/>
</g>
<g class="icon" id="cowboy-hat">
	<path style="fill:currentColor;" d="M12.4,19.3c0.1,0,0.2,0,0.3,0c4-0.2,7.6,0.9,10.8,3.2c2.8,2,5.4,4.2,7.9,6.6
		c2.8,2.7,5.7,5.2,9.1,7.1c3.3,1.9,6.9,2.8,10.7,2.1c2.4-0.4,3.6-1.6,3.7-3.5c0-0.5,0-1-0.1-1.5c-0.2-2.1-1-4-2.5-5.5
		c-2.7-2.6-5.9-4-9.5-4.4c-0.3,0-0.4-0.2-0.5-0.4c-0.1-0.8-0.3-1.6-0.4-2.4c-0.7-3.8-1.4-7.7-2.1-11.5c-0.5-2.7-2.6-4-5.3-3.4
		c-5.9,1.3-11.9,2.6-17.8,4c-2,0.4-3.4,1.7-3.6,3.6C12.8,15.3,12.6,17.3,12.4,19.3z M47.9,41.3c-3.3-0.4-6.4-1.2-9.3-2.9
		c-3.3-2-6.3-4.5-9.1-7.2c-2.3-2.3-4.7-4.4-7.4-6.3c-2.9-2.1-6.1-3.1-9.6-2.8c-2.9,0.3-5.4,1.4-7.5,3.4c-2.5,2.4-4.1,5.3-4.8,8.7
		c-0.2,0.9-0.3,1.9,0,2.8c0.7,2.6,2.8,4.2,5.7,4.2c13.8,0,27.6,0,41.4,0C47.5,41.3,47.7,41.3,47.9,41.3z"/>
	<path style="fill:currentColor;" d="M12.4,19.3c0.2-2.1,0.4-4,0.7-6c0.3-1.9,1.6-3.2,3.6-3.6c5.9-1.3,11.9-2.6,17.8-4
		c2.7-0.6,4.8,0.7,5.3,3.4c0.7,3.8,1.4,7.7,2.1,11.5c0.1,0.8,0.3,1.6,0.4,2.4c0,0.3,0.1,0.4,0.5,0.4c3.7,0.4,6.9,1.8,9.5,4.4
		c1.5,1.5,2.3,3.4,2.5,5.5c0.1,0.5,0.1,1,0.1,1.5c-0.2,1.8-1.3,3-3.7,3.5c-3.8,0.7-7.4-0.2-10.7-2.1c-3.4-1.9-6.3-4.4-9.1-7.1
		c-2.5-2.4-5.1-4.7-7.9-6.6c-3.3-2.3-6.9-3.3-10.8-3.2C12.6,19.3,12.5,19.3,12.4,19.3z"/>
	<path style="fill:currentColor;" d="M47.9,41.3c-0.2,0-0.4,0-0.6,0c-13.8,0-27.6,0-41.4,0c-2.9,0-5-1.6-5.7-4.2c-0.2-1-0.2-1.9,0-2.8
		c0.7-3.4,2.3-6.3,4.8-8.7c2.1-2,4.6-3.1,7.5-3.4c3.6-0.3,6.7,0.7,9.6,2.8c2.6,1.9,5.1,4,7.4,6.3c2.8,2.7,5.8,5.2,9.1,7.2
		C41.4,40.1,44.6,40.9,47.9,41.3z"/>
</g>
<g class="icon" id="park">
	<path style="fill:currentColor;" d="M41.3,23.5c-1.1-0.1-2.1-0.1-3.1-0.3c-2.6-0.6-4.3-2.3-4.9-4.9c-0.6-2.7,0.1-5,2.1-6.9
		c0.3-0.3,0.4-0.5,0.4-1c-0.3-5.6,4.3-9.4,9.1-8.9c4.6,0.5,7.8,4.5,7.3,9.1c0,0.2,0.1,0.5,0.3,0.7c3,2.6,3.3,7,0.7,9.9
		c-1.4,1.6-3.2,2.2-5.2,2.2c-0.4,0-0.8,0-1.3,0c0,0.3,0,0.5,0,0.7c0,6.1,0,12.2,0,18.2c0,0.6-0.1,1.2-0.3,1.7
		c-0.4,1-1.6,1.5-2.7,1.4c-1.3-0.2-2.1-0.9-2.3-2c-0.1-0.4-0.1-0.8-0.1-1.1c0-6,0-12,0-18.1C41.3,24,41.3,23.7,41.3,23.5z"/>
	<path style="fill:currentColor;" d="M16.5,28.9c-3.5,0-7,0-10.5,0c-0.3,0-0.5,0-0.8,0c-1.5-0.2-2.4-1.1-2.4-2.6c0-1.9,0-3.8,0-5.7
		c0-1.5,0.9-2.4,2.4-2.6c0.3,0,0.5,0,0.8,0c7.1,0,14.1,0,21.2,0c2.2,0,3.1,1,3.1,3.2c0,1.6,0,3.2,0,4.8c0,2-1,3-3,3
		C23.7,28.9,20.1,28.9,16.5,28.9z"/>
	<path style="fill:currentColor;" d="M8.2,37.2c0,1.8,0,3.5,0,5.2c0,0.5-0.1,1.1-0.3,1.6c-0.5,1.1-1.7,1.6-3,1.3
		c-1.3-0.3-2.1-1.2-2.1-2.5c0-1.6,0-3.2,0-4.9c0-0.2,0-0.5,0-0.7c-0.2,0-0.4-0.1-0.6-0.1C0.8,36.8,0,35.8,0,34.4
		C0,33,0.9,32,2.2,31.8c0.3,0,0.5-0.1,0.8-0.1c9,0,18,0,26.9,0c2.2,0,3.4,1.5,2.9,3.5c-0.2,1-0.9,1.6-1.8,1.8
		c-0.3,0.1-0.5,0.1-0.8,0.2c0,0.4,0,0.9,0,1.3c0,1.4,0,2.8,0,4.2c0,1.6-1.2,2.7-2.7,2.7c-1.6,0-2.7-1.1-2.8-2.7c0-1.6,0-3.2,0-4.8
		c0-0.2,0-0.4,0-0.7C19.3,37.2,13.8,37.2,8.2,37.2z"/>
</g>
<g class="icon" id="cocktail">
	<path style="fill:currentColor;" d="M22.7,41.5c1.8,0,3.4,0,5.1,0c0.3,0,0.6,0,0.9,0.1c1,0.2,1.6,1,1.6,2c0,0.9-0.6,1.7-1.6,2
		c-0.2,0-0.4,0.1-0.6,0.1c-4.9,0-9.9,0-14.8,0c-1.1,0-1.9-0.5-2.1-1.4c-0.4-1.4,0.5-2.7,2.1-2.7c1.6,0,3.2,0,4.7,0
		c0.2,0,0.4,0,0.7,0c0-0.2,0-0.4,0-0.6c0-3,0-6.1,0-9.1c0-0.4-0.1-0.6-0.4-0.9C13.2,25.9,8.3,21,3.4,16.1c-0.7-0.7-1-1.4-0.7-2.3
		c0.3-0.9,1-1.3,2-1.4c0.1,0,0.2,0,0.3,0c10.4,0,20.8,0,31.2,0c1.2,0,1.9,0.5,2.3,1.4c0.3,0.7,0.2,1.3-0.2,1.9
		c-0.2,0.2-0.4,0.4-0.5,0.6c-4.9,4.9-9.7,9.7-14.6,14.6c-0.3,0.3-0.4,0.6-0.4,1C22.7,35,22.7,38.2,22.7,41.5z"/>
	<path style="fill:currentColor;" d="M28.3,9.5c1.2-3.7,4.9-7.6,10.2-8.2c5.7-0.7,11,2.6,13,7.6c2.1,5.3,0.5,11.1-3.6,14.4
		c-4.2,3.4-10,3.7-14.3,1c0.6-0.6,1.2-1.2,1.7-1.8c0.7-0.9,1.4-1.2,2.6-0.8c4.1,1.2,8.4-1.1,9.9-5.2c1.5-4.1-0.4-8.6-4.3-10.4
		C39.8,4.4,35.4,5.6,33.1,9c-0.3,0.4-0.5,0.5-1,0.5C30.9,9.5,29.6,9.5,28.3,9.5z"/>
</g>
<g class="icon" id="utensils">
	<path style="fill:currentColor;" d="M30.2,19.8c-0.3,0.2-0.5,0.4-0.8,0.7C23,26.9,16.6,33.3,10.1,39.7c-0.2,0.2-0.4,0.5-0.6,0.7
		c-1.1,1.5-0.2,3.6,1.6,4c1.1,0.3,2-0.2,2.8-0.9c6.5-6.5,13-13,19.5-19.6c0.4-0.4,0.7-0.5,1.2-0.2c3.4,1.9,7.9,1,10.2-2.2
		c2.2-3,4.2-6.2,6.3-9.2c0.1-0.1,0.1-0.3,0.2-0.4c0.2-0.6,0-1.2-0.6-1.5c-0.6-0.3-1.1-0.2-1.8,0.4c-2.5,2.5-5.1,5-7.6,7.5
		c-0.2,0.1-0.3,0.3-0.4,0.4c-0.5-0.5-1-1-1.6-1.4c0.1-0.1,0.2-0.3,0.3-0.4c2.4-2.7,4.7-5.4,7.1-8.2c0.2-0.2,0.4-0.5,0.5-0.8
		c0.3-0.8-0.2-1.6-1.1-1.6c-0.4,0-0.8,0.2-1.1,0.4c-1.9,1.6-3.7,3.1-5.5,4.7c-1.1,0.9-2.2,1.9-3.2,2.7c-0.5-0.5-1-1-1.6-1.5
		c0.2-0.2,0.4-0.3,0.6-0.5c2.5-2.5,5-5,7.4-7.5c0.6-0.7,0.7-1.3,0.3-1.9c-0.5-0.6-1.1-0.6-1.9-0.1c-2.9,1.9-5.8,3.8-8.6,5.8
		c-2.7,1.8-3.9,4.4-3.6,7.7C29,17.4,29.5,18.6,30.2,19.8z M25.5,20.4c-0.1-0.1-0.1-0.1-0.2-0.2C19.7,14.5,14,8.8,8.3,3.1
		C8.2,3,8,2.8,7.9,2.7C6.6,1.8,4.9,2.5,4.6,4.1C4.4,5.2,4.2,6.3,4,7.4C3.4,11,3.8,14.5,5.7,17.6c1.1,1.7,2.3,3.3,3.7,4.8
		c1.9,2.1,3.9,4,5.8,6c0.4,0.4,0.9,0.8,1.2,1.1C19.5,26.4,22.5,23.4,25.5,20.4z M29.5,31.8c0.1,0.1,0.1,0.2,0.2,0.2
		c3.8,3.9,7.7,7.8,11.6,11.6c0.2,0.2,0.4,0.3,0.5,0.5c1.3,0.8,3,0.5,3.7-0.7c0.7-1.1,0.5-2.5-0.5-3.5c-3.9-3.9-7.8-7.7-11.7-11.6
		c-0.1-0.1-0.2-0.1-0.2-0.2C32,29.3,30.8,30.5,29.5,31.8z"/>
	<path style="fill:currentColor;" d="M30.2,19.8c-0.7-1.2-1.2-2.4-1.3-3.6c-0.3-3.2,0.9-5.8,3.6-7.7c2.8-2,5.7-3.9,8.6-5.8
		c0.8-0.5,1.4-0.5,1.9,0.1c0.5,0.6,0.4,1.2-0.3,1.9c-2.5,2.5-5,5-7.4,7.5c-0.2,0.2-0.4,0.4-0.6,0.5c0.6,0.6,1.1,1,1.6,1.5
		c1-0.9,2.1-1.8,3.2-2.7c1.8-1.6,3.7-3.2,5.5-4.7c0.3-0.2,0.8-0.4,1.1-0.4c0.8,0,1.3,0.8,1.1,1.6c-0.1,0.3-0.3,0.6-0.5,0.8
		c-2.4,2.7-4.7,5.5-7.1,8.2c-0.1,0.1-0.2,0.3-0.3,0.4c0.5,0.5,1,0.9,1.6,1.4c0.1-0.1,0.2-0.2,0.4-0.4c2.5-2.5,5.1-5,7.6-7.5
		c0.6-0.6,1.2-0.8,1.8-0.4c0.6,0.3,0.8,0.9,0.6,1.5c0,0.1-0.1,0.3-0.2,0.4c-2.1,3.1-4.1,6.2-6.3,9.2c-2.3,3.2-6.7,4.1-10.2,2.2
		c-0.5-0.3-0.8-0.3-1.2,0.2c-6.5,6.5-13,13.1-19.5,19.6c-0.8,0.8-1.7,1.2-2.8,0.9c-1.8-0.4-2.6-2.5-1.6-4c0.2-0.3,0.4-0.5,0.6-0.7
		c6.4-6.4,12.9-12.8,19.3-19.3C29.7,20.2,29.9,20,30.2,19.8z"/>
	<path style="fill:currentColor;" d="M25.5,20.4c-3,3-6,6-9.1,9.1c-0.4-0.3-0.8-0.7-1.2-1.1c-2-2-4-3.9-5.8-6c-1.3-1.5-2.6-3.1-3.7-4.8
		C3.8,14.5,3.4,11,4,7.4c0.2-1.1,0.4-2.2,0.6-3.3c0.3-1.5,1.9-2.2,3.2-1.3C8,2.8,8.2,3,8.3,3.1c5.7,5.7,11.4,11.4,17,17.1
		C25.4,20.3,25.5,20.4,25.5,20.4z"/>
	<path style="fill:currentColor;" d="M29.5,31.8c1.2-1.2,2.4-2.4,3.7-3.7c0,0,0.1,0.1,0.2,0.2c3.9,3.9,7.8,7.7,11.7,11.6
		c1,1,1.2,2.4,0.5,3.5c-0.7,1.2-2.5,1.6-3.7,0.7c-0.2-0.1-0.4-0.3-0.5-0.5c-3.9-3.9-7.7-7.8-11.6-11.6
		C29.7,31.9,29.6,31.8,29.5,31.8z"/>
</g>
<g class="icon" id="campground">
	<path style="fill:currentColor;" d="M23.8,10.5c-1.3-1.6-2.6-3.2-3.8-4.8c-0.2-0.2-0.4-0.4-0.5-0.7c-0.9-1.4-0.7-3,0.5-4
		c1.2-1,2.9-0.8,4,0.5C25,2.8,26,4.1,27.1,5.4c0.1,0.2,0.3,0.3,0.4,0.5c0.2-0.2,0.3-0.3,0.4-0.5c1-1.2,2-2.5,3-3.7
		c0.8-0.9,1.7-1.5,2.9-1.2c1.2,0.3,2,1,2.2,2.2c0.2,0.9-0.1,1.8-0.7,2.5c-1.2,1.5-2.4,3-3.6,4.5c-0.2,0.2-0.3,0.4-0.5,0.7
		c1,1.2,2,2.4,2.9,3.7c6,7.5,12,14.9,18,22.4c0.9,1.1,1.4,2.4,1.3,3.8c0,0.9,0,1.9-0.2,2.8c-0.5,2.1-2.2,3.3-4.5,3.3
		c-6.4,0-12.7,0-19.1,0c-7.8,0-15.6,0-23.4,0c-2.3,0-4.1-1.2-4.5-3.4c-0.4-2.5-0.3-4.9,1.5-7c6.8-8.3,13.4-16.7,20.1-25
		C23.6,10.9,23.7,10.7,23.8,10.5z M27.5,26.6c-3.6,4.7-7.1,9.3-10.7,14c7.2,0,14.3,0,21.5,0C34.7,36,31.1,31.3,27.5,26.6z"/>
</g>
<g class="icon" id="theater">
	<path style="fill:currentColor;" d="M20.5,28.2c0.3-2,0.5-3.7,0.7-5.5c0.5-3.5,1.1-7.1,1.5-10.6c0.2-1.6,0.9-2.7,2.3-3.4
		c1.9-1,3.9-1.5,6-1.7c5.8-0.4,11.5,0.4,17,2.5c2,0.8,3.8,1.9,5.4,3.4c1.2,1.1,1.7,2.4,1.4,4.1c-0.7,4.3-1.4,8.6-1.9,12.9
		c-0.5,4.4-2.5,7.9-6.1,10.5c-1.9,1.4-3.9,2.8-6.1,3.8c-1.7,0.8-3.6,1.2-5.4,1.2c-2,0-3.7-0.8-5.3-1.8c-2.3-1.5-4-3.6-5.7-5.8
		c-1.3-1.7-2.5-3.5-3.1-5.6C20.9,30.9,20.7,29.4,20.5,28.2z M37,37.3c1.6,0,3.1-0.4,4.6-1.2c1.9-1,3.2-2.5,4-4.4
		c0.1-0.2,0.1-0.6-0.1-0.8c-0.1-0.2-0.5-0.2-0.8-0.2c-0.3,0-0.6,0.2-0.9,0.3c-4.3,1.6-8.5,1.2-12.5-0.9c-0.9-0.5-1.6-1.1-2.4-1.7
		c-0.3-0.2-0.8-0.2-1-0.1c-0.2,0.1-0.4,0.6-0.3,0.9C28.1,33.8,32.2,37.3,37,37.3z M36,20.9c-0.1-1.7-1.5-3.3-3.1-3.5
		c-1.8-0.2-3.2,0.8-3.7,2.5c-0.2,1,0.1,1.3,1.1,1.1c1.5-0.4,2.9-0.1,4.3,0.6c0.3,0.1,0.7,0.3,0.9,0.2C35.7,21.6,35.8,21.2,36,20.9z
		 M43.2,19c-1.5,0-2.8,0.9-3.2,2.4c-0.1,0.3-0.1,0.9,0.1,1.1c0.1,0.2,0.7,0.2,1,0.1c1.2-0.3,2.3-0.2,3.5,0.3
		c0.4,0.2,0.7,0.4,1.1,0.6c0.5,0.2,0.9,0,0.9-0.5C46.8,20.8,45.3,19,43.2,19z"/>
	<path style="fill:currentColor;" d="M22.2,39.5c-1.7,0.6-3.3,0.5-4.9,0.2c-1.9-0.3-3.6-1.1-5.2-2c-2-1.2-4-2.6-5.7-4.2
		c-2.6-2.4-3.9-5.4-4.4-8.8C1.4,20.1,0.7,15.6,0,11c-0.2-1.1,0.1-2,0.8-2.8c1.3-1.6,3.1-2.7,4.9-3.6c2.6-1.3,5.5-1.9,8.3-2.4
		c2.7-0.5,5.5-0.8,8.2-0.7c2.5,0.1,5,0.7,7.3,1.7c0.5,0.2,1,0.6,1.6,0.9c-1.5,0.3-3,0.6-4.4,1c-1.9,0.6-3.8,1.4-5.2,2.9
		c-1,1.1-1.4,2.5-1.6,4c-0.5,3.4-1,6.8-1.5,10.1c0,0.3-0.2,0.5-0.5,0.5c-3.1,0.5-5.3,2.5-6,5.5c-0.1,0.3,0,0.7,0.2,0.9
		c0.3,0.3,0.7,0.3,1.1,0c1-0.6,2-1.2,3-1.7c0.5-0.2,1-0.4,1.7-0.6c-0.2,2.4,0.1,4.6,0.9,6.8C19.5,35.7,20.8,37.6,22.2,39.5z
		 M11.8,19.1c0.6,0,1.4-0.2,2-0.8c0.8-0.7,1.2-1.6,1.3-2.7c0-0.9-0.5-1.3-1.2-0.8c-1.4,0.9-3,1.2-4.6,0.7c-0.7-0.2-1,0.1-0.9,0.8
		C8.6,17.8,9.8,19,11.8,19.1z"/>
</g>
<g class="icon" id="golf">
	<path style="fill:currentColor;" d="M20.3,29.6c1.7-0.1,3.2-0.2,4.8-0.3c3.5-0.2,7,0,10.4,0.5c3.3,0.4,6.4,1.2,9.5,2.5
		c1.5,0.6,2.9,1.4,4,2.5c2.2,2.3,1.9,4.5-0.4,6.5c-1.4,1.2-3.1,2-4.9,2.7c-3.6,1.3-7.4,2-11.2,2.3c-3.8,0.3-7.7,0.3-11.5-0.1
		c-4.3-0.5-8.5-1.3-12.4-3.3c-1.3-0.7-2.5-1.5-3.4-2.7c-1.1-1.6-1-3.2,0.2-4.6c1-1.2,2.2-2.1,3.6-2.7c2.1-0.8,4.2-1.4,6.3-2.2
		c0.2-0.1,0.4-0.1,0.7-0.2c0-0.3,0-0.6,0-0.9c0-8.7,0-17.4,0-26.1c0-0.1,0-0.2,0-0.4c-0.1-2.2,1.7-3.1,3.5-2.2
		c6.1,3,12.2,6.1,18.2,9.1c0.8,0.4,1.3,1,1.3,1.9c0,1-0.5,1.6-1.4,2.1c-4.1,2.1-8.2,4.1-12.3,6.2c-1.5,0.8-3,1.5-4.6,2.3
		c-0.4,0.2-0.5,0.4-0.5,0.9c0,1.9,0,3.8,0,5.8C20.3,29.2,20.3,29.4,20.3,29.6z M24.6,34.9c-1.6,0.1-3.1,0.2-4.5,1.1
		c-0.5,0.3-0.9,0.8-1.2,1.4c-0.3,0.7,0.2,1.6,1.1,2.2c1,0.6,2.2,0.9,3.3,1c2,0.2,4,0.1,5.8-1c1.5-0.9,1.6-2.4,0.2-3.5
		c-0.1-0.1-0.2-0.2-0.4-0.2C27.7,35.1,26.1,35,24.6,34.9z"/>
</g>
<g class="icon" id="piano">
	<path style="fill:currentColor;" d="M27.5,46.4c-5.6,0-11.2,0-16.8,0c-3.7,0-6.1-2.4-6.1-6.2c0-7.5,0-14.9,0-22.4c0-3.1,0.7-6.1,2.3-8.8
		C9.3,4.8,13,2,17.8,0.9C24-0.4,29.5,0.9,34.1,5.3c2.8,2.7,4.3,6,4.7,9.8c0.1,0.8,0.1,1.6,0.2,2.4c0.2,2.2,1.3,3.7,3.3,4.7
		c1.5,0.8,3,1.5,4.6,2.2c2.3,1.1,3.6,2.9,3.6,5.5c0,3.6,0.1,7.2,0,10.8c-0.1,3.3-2.6,5.6-5.9,5.6C38.8,46.4,33.2,46.4,27.5,46.4z
		 M10.2,40.7c11.5,0,23,0,34.5,0c0-2.9,0-5.7,0-8.6c-1,0-1.9,0-2.9,0c0,0.3,0,0.5,0,0.7c0,1.2,0,2.3,0,3.5c0,1-0.6,1.6-1.5,1.5
		c-0.9,0-1.3-0.6-1.3-1.6c0-0.5,0-1,0-1.6c0-0.9,0-1.7,0-2.6c-1,0-1.9,0-2.9,0c0,0.3,0,0.7,0,1c0,1.1,0,2.2,0,3.3
		c0,0.9-0.6,1.5-1.4,1.4c-0.8,0-1.3-0.6-1.4-1.5c0-0.4,0-0.8,0-1.1c0-1,0-2,0-3.1c-2,0-3.8,0-5.8,0c0,0.3,0,0.5,0,0.7
		c0,1.2,0,2.4,0,3.6c0,0.9-0.6,1.4-1.4,1.4c-0.8,0-1.4-0.6-1.4-1.5c0-1.2,0-2.4,0-3.6c0-0.2,0-0.4,0-0.6c-1,0-1.9,0-2.9,0
		c0,0.3,0,0.5,0,0.8c0,1.2,0,2.3,0,3.5c0,1-0.6,1.5-1.4,1.5c-0.8,0-1.3-0.6-1.3-1.5c0-0.6,0-1.1,0-1.7c0-0.8,0-1.7,0-2.5
		c-1,0-1.9,0-2.9,0c0,0.2,0,0.5,0,0.7c0,1.2,0,2.4,0,3.5c0,1-0.6,1.5-1.4,1.5c-0.9,0-1.4-0.6-1.4-1.6c0-1.2,0-2.4,0-3.5
		c0-0.2,0-0.4,0-0.6c-1,0-1.9,0-2.9,0C10.2,35,10.2,37.8,10.2,40.7z"/>
</g>
<g class="icon" id="saxophone">
	<path style="fill:currentColor;" d="M37.8,8c0.9-1.5,1.7-2.9,2.5-4.4c0.8-1.5,2.1-2.5,3.8-2.9c1-0.3,2-0.6,3.1-0.7
		c0.7-0.1,1.5,0,2.2,0.2c1.1,0.4,2.1,0.9,3.2,1.4c0.6,0.3,0.9,0.8,0.8,1.4c0,0.6-0.4,1-1.1,1.2c-1.7,0.5-3.4,0.9-5,1.4
		c-1.1,0.3-1.8,0.9-2.2,1.9C40.6,17.7,36.2,28,31.8,38.3c-1.5,3.5-4,6.1-7.5,7.5c-6.9,2.8-14.6,0.1-17.9-6.9
		c-1.2-2.5-1.5-5.1-1.5-7.8c0-2.2-0.1-4.4-0.2-6.5c0-0.1,0-0.3-0.1-0.4c-0.2,0-0.4,0.1-0.6,0.1c-1.1,0.1-2-0.5-2.2-1.5
		c-0.3-1,0.2-2,1.2-2.4c0.1-0.1,0.3-0.1,0.4-0.1c6.5-1.7,13-3.5,19.4-5.2c0.8-0.2,1.6-0.2,2.2,0.5c0.9,1,0.7,2.5-0.4,3.2
		c-0.2,0.1-0.3,0.2-0.5,0.2c-1.2,0.1-1.6,0.9-1.9,1.9c-0.9,3.6-1.9,7.1-2.9,10.6c-0.2,0.7-0.2,1.4,0.2,2.1c0.7,1.3,2.6,1.4,3.4,0.1
		c2.3-3.9,4.5-7.8,6.8-11.7c0,0,0-0.1,0.1-0.2c-0.8-0.5-1.7-0.9-1.8-1.9c0-0.4,0-1,0.3-1.4c0.7-1.2,1.5-1.2,3.5-0.3
		c0.3-0.5,0.6-0.9,0.9-1.5c-0.8-0.5-1.7-0.9-1.8-2c0-0.4,0.1-0.9,0.3-1.3c0.7-1.2,1.6-1.2,3.5-0.2c0.3-0.5,0.5-1,0.8-1.5
		c-1.7-1.3-2.1-2.2-1.5-3.3C34.8,7.2,35.6,7.1,37.8,8z M16,25.4c-0.3-1.1-1.4-1.8-2.5-1.5c-1.1,0.3-1.8,1.5-1.5,2.6
		c0.3,1.1,1.4,1.7,2.5,1.5C15.6,27.6,16.3,26.5,16,25.4z M15.4,34c-0.3-1.1-1.5-1.8-2.6-1.4c-1.1,0.3-1.7,1.5-1.4,2.5
		c0.3,1.1,1.5,1.8,2.6,1.5C15.1,36.3,15.7,35.1,15.4,34z"/>
</g>
<g class="icon" id="hotel">
	<path style="fill:currentColor;" d="M7.3,6.2C7.1,6.2,7,6.1,6.8,6.1C5.3,5.8,4.5,4.7,4.5,3.2c0-1.5,0.9-2.5,2.4-2.7c0.3,0,0.5,0,0.8,0
		c13.2,0,26.4,0,39.5,0c1.6,0,2.6,0.6,3,1.8c0.6,1.8-0.3,3.5-2.2,3.8c-0.1,0-0.3,0.1-0.4,0.1c0,11.5,0,23,0,34.5
		c0.2,0.1,0.5,0.1,0.7,0.2c1.2,0.3,2,1.3,2.1,2.6c0,1.4-0.6,2.5-1.9,2.8c-0.3,0.1-0.7,0.2-1.1,0.2c-5.1,0-10.2,0-15.3,0
		c-0.1,0-0.2,0-0.4,0c0-1.9,0-3.8,0-5.7c-2.9,0-5.8,0-8.7,0c0,1.9,0,3.8,0,5.7c-0.2,0-0.4,0-0.6,0c-5,0-10,0-15,0
		c-1.7,0-2.8-0.9-3-2.3c-0.3-1.8,0.6-3.1,2.5-3.4c0.1,0,0.2,0,0.3-0.1C7.3,29.2,7.3,17.7,7.3,6.2z M27.5,35C27.5,35,27.5,35,27.5,35
		c2.2,0,4.4,0,6.6,0c1.3,0,2.1-1.1,1.8-2.3c-1-3.7-4.8-6.6-8.6-6.4c-3.7,0.2-6.7,2.5-8,6C18.7,34,19.8,35,21.2,35
		C23.3,34.9,25.4,35,27.5,35z M15.9,14.8c0.5,0,1,0,1.4,0c0,0,0.1,0,0.1,0c0.8-0.1,1.3-0.5,1.3-1.3c0.1-1.1,0.1-2.2,0-3.2
		c0-0.8-0.6-1.3-1.4-1.3c-1,0-2,0-2.9,0c-0.8,0-1.3,0.4-1.4,1.2c-0.1,1.1-0.1,2.2,0,3.3c0.1,0.8,0.6,1.2,1.4,1.2
		C15,14.8,15.5,14.8,15.9,14.8z M27.5,9c-0.5,0-1,0-1.4,0c0,0-0.1,0-0.1,0c-0.7,0-1.3,0.4-1.3,1.2c-0.1,1.1-0.1,2.3,0,3.5
		c0,0.7,0.6,1.2,1.4,1.2c1,0,2,0,3,0c0.8,0,1.3-0.5,1.3-1.3c0.1-1.1,0.1-2.2,0-3.2c0-0.8-0.6-1.3-1.4-1.3C28.4,9,28,9,27.5,9z
		 M39,14.8C39,14.8,39,14.8,39,14.8c0.5,0,0.9,0,1.4,0c0,0,0.1,0,0.1,0c0.8,0,1.3-0.5,1.4-1.3c0.1-1.1,0.1-2.2,0-3.2
		c0-0.8-0.6-1.3-1.3-1.3c-1,0-2,0-3.1,0c-0.7,0-1.3,0.4-1.3,1.2c-0.1,1.1-0.1,2.3,0,3.5c0,0.7,0.6,1.1,1.3,1.2
		C38,14.8,38.5,14.8,39,14.8z M16,23.5c0.5,0,0.9,0,1.4,0c0,0,0.1,0,0.1,0c0.8,0,1.3-0.5,1.4-1.2c0.1-1.1,0.1-2.2,0-3.3
		c0-0.8-0.6-1.2-1.3-1.3c-1,0-2,0-3,0c-0.7,0-1.3,0.4-1.3,1.2c-0.1,1.1-0.1,2.3,0,3.4c0.1,0.8,0.6,1.2,1.4,1.2
		C15,23.5,15.5,23.5,16,23.5z M27.4,23.5c0.5,0,1,0,1.6,0c0.8,0,1.3-0.5,1.3-1.2c0.1-1.1,0.1-2.2,0-3.3c0-0.8-0.6-1.2-1.4-1.2
		c-1,0-2,0-3,0c-0.7,0-1.3,0.4-1.3,1.1c-0.1,1.1-0.1,2.3,0,3.5c0,0.7,0.6,1.1,1.3,1.2C26.5,23.5,27,23.5,27.4,23.5z M39,17.7
		C39,17.7,39,17.7,39,17.7c-0.5,0-1,0-1.5,0c-0.8,0-1.3,0.4-1.4,1.2c-0.1,1.1-0.1,2.3,0,3.5c0,0.7,0.6,1.1,1.3,1.2c1,0,2,0,3.1,0
		c0.8,0,1.3-0.5,1.3-1.2c0.1-1.1,0.1-2.2,0-3.3c0-0.7-0.6-1.2-1.3-1.2C40,17.7,39.5,17.7,39,17.7z"/>
</g>
<g class="icon" id="fishing-rod">
	<path style="fill:currentColor;" d="M11,26.3c0-0.4,0-0.7,0-1.1c0.1-2.4-0.1-4.8,0.3-7.2c1.3-7.3,5.6-12.4,12.5-15
		c2.8-1,5.7-1.8,8.6-2.5c3.5-0.9,8.3,1.2,8.6,6.6c0.1,1.8,0,3.5,0,5.3c0,1.3-0.8,2.2-2,2.2c-1.2,0.1-2.1-0.8-2.2-2.1
		c-0.1-1.5,0-3,0-4.5c0-0.4,0-0.9-0.1-1.3c-0.3-1.5-1.8-2.5-3.3-2.1c-3.5,1-7.2,1.5-10.4,3.4c-4.7,2.7-7.4,6.8-7.8,12.2
		c-0.1,2,0,3.9,0,6c0.4,0,0.8,0.1,1.3,0.1c1.3,0.2,2.2,1.2,2.2,2.6c0,2.3,0,4.5,0,6.8c0,2.5,0,5,0,7.4c0,2.2-1,3.2-3.2,3.2
		c-1.7,0-3.4,0-5.1,0c-2,0-3.1-1-3.1-3c0-4.7,0-9.4,0-14c0-2,1.1-3,3.1-3C10.6,26.3,10.7,26.3,11,26.3z"/>
	<path style="fill:currentColor;" d="M42.3,40.9c0.7,1.1,1.4,2.1,2,3.1c0.4,0.5,0.6,1.1,0.3,1.7c-0.3,0.6-0.9,0.8-1.6,0.8
		c-2.6,0-5.3,0-7.9,0c-0.7,0-1.3-0.2-1.6-0.8c-0.3-0.6-0.1-1.2,0.3-1.7c0.7-1,1.3-2,2-2.9c-0.6-0.7-1.2-1.3-1.8-2
		c-1.9-2.3-3.3-4.9-3.4-7.9c-0.1-1.9,0.3-3.7,1.2-5.3c1.5-2.7,3.4-5.1,5.8-7.1c1.6-1.3,1.6-1.3,3.3,0.1c2.4,2,4.4,4.4,5.8,7.2
		c1.6,3.2,1.4,6.4-0.1,9.6c-0.9,1.9-2.2,3.5-3.6,5C42.6,40.7,42.4,40.8,42.3,40.9z M41.2,28.5c0-1.2-1-2.2-2.1-2.2
		c-1.2,0-2.2,1-2.2,2.2c0,1.2,1,2.1,2.2,2.1C40.2,30.6,41.2,29.6,41.2,28.5z"/>
</g>
<g class="icon" id="buoy">
	<path style="fill:currentColor;" d="M9.3,34.6c-0.2-1.4-0.3-2.7,0-4c0.2-1.1,1.2-1.8,2.5-1.8c0.5,0,1,0,1.5,0c0.5,0,1,0,1.6,0
		c1.4-7,2.8-14.1,4.2-21.1c-1-0.3-1.7-0.9-1.9-1.9c-0.4-1.5,0.5-2.9,2-3.2c0.2,0,0.5-0.1,0.8-0.1c5.1,0,10.1,0,15.2,0
		c1.4,0,2.4,0.6,2.7,1.7c0.5,1.4-0.2,2.7-1.9,3.4c1.4,7,2.8,14,4.2,21.1c1,0,1.9,0,2.8,0c1.9,0,2.9,1,2.9,2.9c0,1,0,1.9-0.1,3
		c-0.3-0.1-0.6-0.2-0.8-0.3c-1.8-0.7-3.5-0.2-5.1,0.8c-1.7,1.2-3.6,1.7-5.7,1.3c-1.3-0.2-2.4-0.7-3.5-1.4c-1.4-1-2.9-1.4-4.6-0.8
		c-0.6,0.2-1.2,0.5-1.8,0.9c-3,1.9-5.9,2-9,0.2c-0.5-0.3-1.1-0.6-1.7-0.9c-1.3-0.6-2.6-0.5-3.8,0C9.7,34.4,9.5,34.5,9.3,34.6z
		 M30.6,7.7c-2,0-4,0-6,0c-0.1,0-0.3,0.2-0.4,0.4c-0.2,1-0.4,2.1-0.7,3.1c-0.1,0.4,0,0.6,0.2,0.9c1.1,1.3,2.3,2.6,3.4,3.9
		c0.1,0.1,0.2,0.2,0.3,0.3c1.3-1.5,2.5-2.9,3.7-4.3c0.1-0.1,0.2-0.3,0.1-0.5C31.2,10.2,30.9,9,30.6,7.7z M27.5,22.3
		c-1.9,2.2-3.6,4.3-5.5,6.4c3.7,0,7.3,0,11,0C31.1,26.5,29.3,24.4,27.5,22.3z M30.1,19.3c1.2,1.4,2.4,2.8,3.6,4.3c0,0,0.1,0,0.1,0
		c-0.5-2.2-0.9-4.5-1.4-6.9C31.6,17.5,30.9,18.4,30.1,19.3z M21.3,23.4c0,0,0.1,0,0.1,0c1.1-1.4,2.3-2.7,3.4-4.1
		c-0.7-0.9-1.4-1.8-2.2-2.7C22.2,18.9,21.7,21.2,21.3,23.4z"/>
	<path style="fill:currentColor;" d="M35.4,44.4c-2.5-0.1-5.1-0.6-7.4-2c-0.4-0.2-0.6-0.2-1,0c-2.3,1.3-4.8,1.9-7.3,1.9
		c-2.5,0.1-4.9-0.6-7.1-1.8c-0.5-0.2-0.8-0.3-1.2,0C10,43.5,8.5,44,7,44.4c-1.4,0.3-2.6-0.5-3-1.9c-0.4-1.3,0.3-2.6,1.6-3.1
		c1.1-0.4,2.1-0.8,3.2-1.3c0.4-0.2,0.8-0.5,1.1-0.8c1.3-1,2.2-0.9,3.6-0.1c1,0.6,2,1.1,3.1,1.5c3.1,1.1,6.1,0.5,8.9-1.2
		c0.1-0.1,0.2-0.2,0.4-0.2c1.1-0.8,2.1-0.7,3.3-0.1c0.9,0.5,1.8,1.1,2.7,1.4c3.3,1.3,6.3,0.6,9.3-1.1c0.2-0.1,0.4-0.3,0.6-0.4
		c1.1-0.6,2.1-0.6,3.1,0.1c0.9,0.6,1.9,1.2,2.9,1.7c0.5,0.3,1.1,0.4,1.6,0.6c1.3,0.5,2,1.8,1.6,3.1c-0.4,1.4-1.7,2.2-3.1,1.8
		c-1.5-0.4-3-0.9-4.4-1.8c-0.3-0.2-0.5-0.2-0.8,0C40.5,43.7,38.1,44.4,35.4,44.4z"/>
</g>
</svg>
